<svg xmlns="http://www.w3.org/2000/svg" viewBox="0 0 1920 560.14"><defs><style>.cls-1{fill:#344451;}</style></defs><title>dark-mountain</title><g id="Layer_2" data-name="Layer 2"><g id="Layer_1-2" data-name="Layer 1"><path class="cls-1" d="M766,553.05c-28-23.87-66.26-15-96.49-34.11-22.51-16.3-39.39-52.15-61.9-58.67C495.07,417.9,372,233.57,277.09,211,146.75,180,18.83,106.64,0,82.64v477.5l765.83-1C765.95,557.14,766,555.11,766,553.05Z"/><path class="cls-1" d="M381.67,234.39c1,1.28,2,2.59,3,3.84a2.28,2.28,0,0,0,1,.69,2.75,2.75,0,0,1,2.21,2.65,2.59,2.59,0,0,0,2.32,2.72,7.71,7.71,0,0,1,1.45.64c.31-.58.56-1.13.88-1.65.71-1.17,1.27-1.29,2.42-.57a6.67,6.67,0,0,0,.63.43c.39.18.8.32,1.2.48a4.43,4.43,0,0,0-.16-1.31,7.81,7.81,0,0,1-.35-5.36,3.64,3.64,0,0,1,1.49-2c.29-.18,1.17.57,1.77.92.29.17.54.38,1.08.75a8.07,8.07,0,0,0-.1-1.35,9,9,0,0,1,1.14-7.35c.27-.45.93-.65,1.39-1,.29-.22.81-.56.78-.75-.49-2.38.56-4.52.87-6.78a54.91,54.91,0,0,0,.5-6.41,4,4,0,0,1,1.27-2.9,1.46,1.46,0,0,1,2.33.67c.66,1.42,1.19,2.9,1.72,4.37.72,2,1.26,4.1,2.08,6.08,1,2.3,2,4.55,1.94,7.11,0,.25.53.7.82.71,1.2,0,1.51.67,1.79,1.75a10.1,10.1,0,0,1-.21,6c-.3.9,0,1.17,1,1,2.58-.32,3.33.5,2.72,3.06-.22.92-.52,1.81-.82,2.71-.25.73,0,.95.72.86,2-.23,2.66.44,2.74,2.53a12.09,12.09,0,0,1-1.32,4.91c-.06.16-.09.34-.18.73.57-.14,1-.22,1.42-.35,1.39-.44,2.28.27,1.9,1.73s-1.13,3.15-1.63,4.75a6,6,0,0,0-.32,2.28,9.89,9.89,0,0,1-1.5,5.94,4.45,4.45,0,0,0-.78,3.25c.3,1.64-.58,3.06-1.37,4.5-1.08,2-1.93,4.07-2.87,6.11l.46.28A7,7,0,0,0,418,280c.41-.89.73-1.83,1.11-2.73a2.8,2.8,0,0,1,2.29-1.81,2.29,2.29,0,0,0,1.9-1.71c.57-1.48,1-3.06,2.51-4a9.29,9.29,0,0,0,3.63-3.66c1.1-1.68,2.33-3.16,4.63-3.19a2.08,2.08,0,0,0,1.34-1,11.25,11.25,0,0,1,6.18-4.77,6.12,6.12,0,0,0,1.56-.94c2.55-1.81,5.09-3.64,7.64-5.45a2.21,2.21,0,0,1,.7-.31c.83-.22,1.24.13,1,.94-.5,1.44-1.15,2.84-1.65,4.28a11,11,0,0,0-.65,2.81,8.64,8.64,0,0,1-1.57,4.37,1.86,1.86,0,0,0-.2,2.12,2.57,2.57,0,0,1-.51,2.94,2.8,2.8,0,0,0-.75,2.52.81.81,0,0,0,.31.51c.7.31,1.42.57,2.2.87,1.3-1.39,2.76-3,4.27-4.55.71-.74,1.48-1.46,2.28-.58,2.38-2.46,4.78-4.78,7-7.26,2-2.2,3.71-4.59,5.62-6.85a43.72,43.72,0,0,1,3.34-3.46c.28-.26.83-.22,1.26-.32.07.48.34,1,.17,1.41-1.75,4-3.61,8-5.37,11.94-.75,1.7-1.33,3.47-2,5.19-.4,1-1,1.88-1.37,2.84-.12.28-.15.87,0,1,1.18.74,1,1.76.48,2.69-1.41,2.53-2.44,5.32-4.64,7.33,0,.11,0,.21.09.23,1.88,1,2.12,1.63,1.25,3.63-1,2.22-2.08,4.36-4.19,5.76a5.87,5.87,0,0,0-.77.75c1.54,1.8,1.71,2.38.29,4.3a45.72,45.72,0,0,1-4.13,4.44,5.2,5.2,0,0,1-1,.62c1.59,1.06,1.78,2.19.66,3.6a18.71,18.71,0,0,1-1.77,1.72,23.29,23.29,0,0,1,2.46.29,1.71,1.71,0,0,1,1,.7c.09.15-.35.61-.52.94a2.51,2.51,0,0,0-.43,1c0,.63-.21.87-.81.86-2,0-3.07,1.45-4.15,2.81-.61.76-1,1.68-1.56,2.49a8.18,8.18,0,0,0-1.64,3.14c-.13.7-1,1.27-1.57,1.88s-1.28,1.29-1.9,1.95c-.44.47-.29,1,.23,1.14a5.38,5.38,0,0,0,2.3.26,3.37,3.37,0,0,1,2.2,0,2.16,2.16,0,0,0,1.64-.09,2.17,2.17,0,0,1,2.63.2c.06,0,.11.11.18.13,1.38.3,2.54,1.3,3.75,1.64,1.44.42,3.29-.16,4.83-.68a3,3,0,0,1,2.76.06,7.38,7.38,0,0,0,3.63,1,30,30,0,0,1,5,.84c.37.08.88.46.93.75s-.38.73-.7,1c-1.35,1-2.78,2-4.12,3s-1.44,1.79-.24,3.12a3.34,3.34,0,0,1,.62,3.2,1.66,1.66,0,0,0,.84,2.12,2.43,2.43,0,0,1,1.19,2.9c-.34,1.47,1,1.75,1.69,2.35.22.18,1.13-.28,1.6-.62,1.42-1,2.51-2.53,4.4-2.9.37-.07.69-.59,1-1,.56-.76,1-1.61,1.62-2.32a2.46,2.46,0,0,1,2.55-.9c.86.23,1.32-.15,1.8-.83a9.43,9.43,0,0,1,1.9-2.05,2.39,2.39,0,0,1,2.59-.25c.94.45,1.58.13,2.23-.7,1.22-1.54,2.64-2.84,4.92-2.31a1.91,1.91,0,0,0,1.36-.51c1.49-1.24,3-2.21,5.07-1.45a1.76,1.76,0,0,0,1.31-.31,10.17,10.17,0,0,1,5.47-1.91c1.11,0,2.17-1.06,3.3-1.54a19,19,0,0,1,2.56-.78,8.69,8.69,0,0,0,1.38-.25c3.81-1.76,7.5-3.72,10.46-6.79a2.55,2.55,0,0,1,.7-.52c.69-.34,1.21,0,1.05.77a5.76,5.76,0,0,1-.69,1.59c-1.25,2.22-2.54,4.42-3.78,6.64a3.19,3.19,0,0,0-.42,1.23,12.2,12.2,0,0,1-2.67,6.14,3.21,3.21,0,0,0-.65,2.55,5.09,5.09,0,0,1-2,4.93,1.79,1.79,0,0,0-.76,2.06,3.79,3.79,0,0,1-1.72,4.06,1.63,1.63,0,0,0-.86,2.17,2.69,2.69,0,0,1-1.73,3.52c-1.84.83-1.84.86-1.39,2.76a1.69,1.69,0,0,1-1,2.09,26.87,26.87,0,0,1-2.57.9c-1.23.41-1.45,1.05-.73,2.13s.59,1.71-.52,2.43a12.87,12.87,0,0,0-1.28.84,2.89,2.89,0,0,0-1,1.11,1.84,1.84,0,0,0,.2,1.46c.13.19,1,.11,1.31-.15a12.13,12.13,0,0,1,4.68-2.52,15.77,15.77,0,0,1,1.59-.41c1.76-.33,2.12-.08,2.45,1.65.27,1.41,1,1.63,2.29.88,1.81-1.05,3.5-2.4,5.69-2.66,1.4-.17,1.67.06,1.7,1.48,0,1.73,1,2.28,2.64,1.6,1.47-.61,3-1.12,4.5-1.59a4.74,4.74,0,0,1,1.63,0c.83.05,1.21.49,1.22,1.36,0,1.46.69,1.86,2.05,1.39,1.55-.53,3.11-1.07,4.7-1.45s2,.16,1.89,1.64c-.09,1.79.68,2.49,2.39,2a7.26,7.26,0,0,1,4.92,0,1.79,1.79,0,0,1,1,.95c.3,1.16,1,1.35,2.06,1.32,1.6-.06,3.2-.13,4.79-.05a1.92,1.92,0,0,1,1.22.87,1.76,1.76,0,0,0,1.48.91c2.35.2,4.7.49,7,.71,2.79.26,5.59.48,8.39.73,1.37.12,2.75.24,4.11.46.36.06.67.47,1,.72-.24.28-.42.71-.72.82-1.6.58-3.26,1-4.85,1.63s-3.07,1.33-4.61,2a5.62,5.62,0,0,1-1.54.54,2.56,2.56,0,0,0-1.83,1.21,4.63,4.63,0,0,1-1.72,1.23,11.72,11.72,0,0,1-2.41.71,2.23,2.23,0,0,0-2.07,1.91,2.17,2.17,0,0,1-1.21,1.27,6.74,6.74,0,0,1-2.43.48c-1.7,0-1.81.15-2,1.89a1.54,1.54,0,0,1-.86,1.1c-1.47.36-3,.58-4.48.82-.43.07-.88,0-1.31,0a1.14,1.14,0,0,0-1.09,1.6c.32,1.21-.2,1.91-1.52,1.88-1.67,0-3.35-.13-5-.28s-1.8,0-1.8,1.56c0,.92-.39,1.51-1.36,1.45-1.3-.08-2.61-.21-3.9-.4s-1.47-.07-1.87,1.17c-.13.41-.58,1-.93,1a13.39,13.39,0,0,1-3.53-.08c-1.31-.24-2.56-.83-3.86-1.15-1-.24-1.42.16-1.48,1.17-.08,1.28-1,2-2,1.28-2.27-1.56-4.88-1.25-7.35-1.69a1.34,1.34,0,0,0-1.72.86c-.23.53-1.08.83-1.7,1.13a4.56,4.56,0,0,1-1.36.12c1.3.56,2.32,1.06,3.38,1.44a1.43,1.43,0,0,1,1,1.95c-.28,1,.19,1.21,1.09,1.09a9,9,0,0,1,5.62,1c.95.5,1,.8.43,1.7-.37.57-.63,1.2-1,2a43.89,43.89,0,0,1,5,.57A20.92,20.92,0,0,1,528.9,413c1.4.66,1.41,1.23.28,2.33a2.44,2.44,0,0,0-.24.41l.8.43c2.18,1.1,4.37,2.17,6.52,3.32.38.2.56.76.85,1.13a2.82,2.82,0,0,0,.68.74c1.31.78,2.67,1.47,4,2.26,1.74,1.06,3.39,2.3,5.19,3.23a38.52,38.52,0,0,0,3.83,1.21,32.82,32.82,0,0,1,4,1.87c.41.23.63.8.93,1.22a5.2,5.2,0,0,1-1.39.52,2.65,2.65,0,0,1-2.58-.84,1.09,1.09,0,0,0-1.05-.16c-.83.77-1.83.53-2.72.46-2.47-.19-4.92-.56-7.39-.85l-2.45-.26,2.28,3L362.58,414.14Z"/><path class="cls-1" d="M1486,121.61c1.35,2.23-4.62-4.62-4.62-8.08,0-2.74,1.5-3.18,0-5.77-.12-.21-1,1.51-1.15,1.15a34.78,34.78,0,0,1-1.31-3.65,14,14,0,0,0-1-3.28c-1.39-2.4-1,3.44-2.31,1.15-1.07-1.86-.63-9.24-2.31-9.24a11.63,11.63,0,0,1-3.18-.25c-.06-.4,0-.81-.06-1.21-.26-1.39-.49-2.78-.87-4.14a1.53,1.53,0,0,0-1.09-.79c-1.72-.2-1.83-.31-1.89-1.88a6,6,0,0,0-.51-2.24,2.12,2.12,0,0,0-1.27-1.12,2.15,2.15,0,0,1-1.91-1.91,10.47,10.47,0,0,0-.74-2.22,4.38,4.38,0,0,0-1.23-1.59,2.41,2.41,0,0,1-1.21-1.68,5.06,5.06,0,0,0-.55-1.42c-.67-1.42-1.41-2.81-2-4.25s-1.08-3-1.68-4.48c-.11-.28-.53-.44-.81-.66-.24.31-.64.59-.69.92-.19,1.26-.29,2.53-.39,3.79-.2,2.58-.37,5.17-.59,7.75-.18,2.17-.43,4.34-.59,6.51a1.59,1.59,0,0,1-.87,1.37,1.75,1.75,0,0,0-.83,1.13c0,1.47,0,2.95.13,4.42.05.93-.13,1.63-1.26,1.91a1.67,1.67,0,0,0-.91.93,6.33,6.33,0,0,0,.08,4.55c.51,1.58-.18,2.3-1.93,2.22-1.45-.07-1.94.4-1.58,1.75s1,2.9,1.5,4.33c.48,1.26.1,1.88-1.34,1.9-.85,0-1.27.37-1.31,1.13a4.12,4.12,0,0,0,0,1.5,43.46,43.46,0,0,0,1.63,4.15c.69,1.5.17,2.4-1.53,2.45-1.39,0-1.61.29-1.42,1.58.3,2,1.64,3.58,2.71,5.25.76,1.19.55,1.86-.83,2.12-1.7.32-1.93.64-1.58,2.27a14,14,0,0,0,.43,1.46,11.21,11.21,0,0,0,2.55,4.31c.25.27.35,1.09.17,1.21a1.9,1.9,0,0,1-1.43.19,2.85,2.85,0,0,1-1.1-.92,12,12,0,0,1-.84-1.18,1.48,1.48,0,0,0-2.4-.48c-1,.67-1.69.46-2.11-.67a24.24,24.24,0,0,0-.92-2.37,1.72,1.72,0,0,0-2.07-.9c-1.86.42-1.89.43-2.73-1.27a2.71,2.71,0,0,0-3.49-1.59,1.66,1.66,0,0,1-2.14-.79,3.87,3.87,0,0,0-4-1.57,1.83,1.83,0,0,1-2-.69,5.22,5.22,0,0,0-4.88-1.81,3.33,3.33,0,0,1-2.52-.59,12.54,12.54,0,0,0-6.07-2.44,3.31,3.31,0,0,1-1.22-.38c-2.2-1.14-4.38-2.32-6.58-3.47a5.94,5.94,0,0,0-1.57-.63c-.75-.14-1.08.34-.74,1a2.42,2.42,0,0,0,.52.65,31.35,31.35,0,0,1,6.84,9.64,7.71,7.71,0,0,1,.27,1.27,17,17,0,0,0,.81,2.36c.49,1,1.52,2,1.57,3a9.16,9.16,0,0,0,2,5,1.57,1.57,0,0,1,.33,1.21c-.71,1.92.26,3.31,1.51,4.68a1.72,1.72,0,0,1,.52,1.25c-.48,2.11.81,3.41,2.35,4.54.82.6,1.14,1.19.72,2.06a2.11,2.11,0,0,0,.29,2.39,9.24,9.24,0,0,0,2,1.75c.68.44,1.05.86.85,1.66a2.23,2.23,0,0,0,.92,2.35c.7.57,1.55,1,2.3,1.48.36.25.88.54,1,.88.39,1.75,1.88,2.74,2.92,4.05.34.43.81,1.27.64,1.48-.58.68-.83,1.88-2.29,1.57a2.42,2.42,0,0,0-2.84,1.11,1.65,1.65,0,0,1-2.07.78,3.42,3.42,0,0,0-3.13.59c-1.29,1.11-1.94,1.12-3.07-.21s-2-2.55-3-3.79c-.24-.29-.68-.68-1-.64s-.66.52-.73.86a26.08,26.08,0,0,0-.75,4.67,6.45,6.45,0,0,1-.89,3.36,2.61,2.61,0,0,0,0,2.55c.53,1.43,1.13,3.13.74,4.46-.32,1.11-1.28,2.19-1.56,3.47,0,.06-.08.11-.12.16a1.9,1.9,0,0,0-.16,2.43,1.89,1.89,0,0,1,.11,1.52,2.94,2.94,0,0,0,0,2,4.67,4.67,0,0,1-.22,2.12c-.14.48-.65.62-1.12.22-.66-.57-1.28-1.18-1.94-1.75s-1.18-1.32-1.87-1.44a8.35,8.35,0,0,1-3.11-1.51c-.81-.51-1.72-.87-2.47-1.43-1.35-1-2.82-1.95-2.82-3.82,0-.56-.24-.76-.86-.75a2.58,2.58,0,0,1-1-.4c-.33-.16-.78-.57-.93-.48a1.55,1.55,0,0,0-.67.94,20.17,20.17,0,0,0-.24,2.27,18.25,18.25,0,0,0-1.72-1.63c-1.4-1-2.51-.85-3.53.62a4.86,4.86,0,0,0-.63-.89,44.83,44.83,0,0,0-4.43-3.8c-1.91-1.3-2.48-1.15-4.22.29a5.69,5.69,0,0,1-.74-.71c-1.42-1.94-3.53-3-5.73-3.85-2-.8-2.58-.58-3.55,1.17,0,0-.12,0-.23.08-2-2-4.77-3-7.28-4.26-.92-.47-1.92-.63-2.63.45-.09.14-.67.11-1,0-1-.38-1.85-.89-2.81-1.25-1.7-.65-3.45-1.18-5.13-1.87-4-1.61-7.87-3.31-11.82-4.92-.37-.15-.92.1-1.38.16.1.39.08.91.34,1.16a42.75,42.75,0,0,0,3.45,3.07c2.24,1.75,4.63,3.35,6.82,5.17,2.47,2,4.8,4.25,7.25,6.45-.85.75-.13,1.46.6,2.11,1.56,1.38,3.15,2.73,4.54,3.92-.28.72-.52,1.39-.82,2-.06.14-.31.24-.5.29a2.89,2.89,0,0,1-2.48-.69,2.66,2.66,0,0,0-2.9-.46,1.93,1.93,0,0,1-2.09-.18,8.94,8.94,0,0,0-4.32-1.43,11.47,11.47,0,0,1-2.78-.59c-1.43-.45-2.8-1.05-4.23-1.51-.8-.25-1.14.13-.91.89a2,2,0,0,0,.31.64c1.82,2.35,3.66,4.69,5.48,7a5.7,5.7,0,0,1,.95,1.44,10.7,10.7,0,0,0,4.78,5.69,2,2,0,0,1,1,1.24c.07,2.12,1.54,3.25,3.21,4.26a9,9,0,0,1,3.65,3.34c.93,1.4,2.49,1.78,4,2.3a2.21,2.21,0,0,1,1.71,1.75,2.67,2.67,0,0,0,1.82,2.11c.9.34,1.82.64,2.7,1a7,7,0,0,1,1.11.74l-.27.42c-2-.87-4.1-1.64-6-2.63-1.42-.72-2.83-1.54-4.44-1.25a4.63,4.63,0,0,1-3.21-.71,10.29,10.29,0,0,0-5.86-1.36,6.24,6.24,0,0,1-2.24-.28c-1.58-.45-3.1-1.11-4.69-1.49s-2.13.48-1.67,1.77c.14.38.22.79.37,1.31-.38-.09-.56-.11-.72-.17a12.6,12.6,0,0,0-4.85-1.2c-2.05.08-2.71.68-2.45,2.54.09.65-.12.9-.84.67-.88-.28-1.77-.55-2.67-.75-2.53-.55-3.33.15-3,2.53.14.91-.12,1.22-1,.94a10.53,10.53,0,0,0-5.9-.17c-1,.26-1.67.55-1.69,1.66,0,.27-.44.76-.69.76-2.52,0-4.71.93-7,1.82-1.93.76-4,1.27-5.94,1.94-1.44.49-2.89,1-4.27,1.6-1,.46-1.29,1.53-.62,2.16a4.06,4.06,0,0,0,2.87,1.17,57.62,57.62,0,0,1,6.31.44c2.22.28,4.35,1.25,6.67.78.18,0,.52.44.74.71.35.42.56,1,1,1.28a9.42,9.42,0,0,0,7.24,1,8.38,8.38,0,0,1,1.33-.1c-.36.49-.56.73-.72,1-.33.55-1.05,1.37-.87,1.63a3.62,3.62,0,0,0,2,1.37,8.1,8.1,0,0,0,5.26-.34,4.59,4.59,0,0,1,1.29-.15c-.15.37-.28.75-.45,1.11a6.1,6.1,0,0,1-.41.59c-.69,1.07-.56,1.58.59,2.24.51.29,1.06.53,1.64.81a6.83,6.83,0,0,0-.61,1.34,2.46,2.46,0,0,1-2.63,2.16,2.62,2.62,0,0,0-2.57,2.05,2.07,2.07,0,0,1-.66,1c-1.22,1-2.48,1.88-3.73,2.82l97.37,9.32"/><path class="cls-1" d="M1920,0c-4.46,2.3-311.87,47.61-396,61.93a25.72,25.72,0,0,0-16.44,10.45c-26.36,36.35-62.75,53.32-84.75,95.81-29.53,52.15-105.52,122.6-135,168.23-26.57,42.37-50.2,75-73.82,120.6-8.86,13-17.72,19.56-29.53,26.07C1139.81,507.73,1076.75,512,1050,559.14l870-.14"/></g></g></svg>