<svg xmlns="http://www.w3.org/2000/svg" viewBox="0 0 188.35 455.36"><defs><style>.cls-1{fill:#344451;}</style></defs><title>hiker</title><g id="Layer_2" data-name="Layer 2"><g id="Layer_1-2" data-name="Layer 1"><path class="cls-1" d="M10.54,165.15a14,14,0,0,1,4.85,0c4.42.56,7.67-1.9,11.13-4,1.73-1,3.68-1.69,5.36-2.79s3.8-2.4,5-4.1c1.78-2.49,3.11-5.22,6.37-6.18.42-.13.58-1.24.81-1.91.18-.52.1-1.22.43-1.56,1.66-1.7,2.53-1.45,3.33,1a20.26,20.26,0,0,0,1.62,3.45,21.34,21.34,0,0,1-1.14,7.62c2.14,17.19,1.44,30.73-6.14,48-1.4,3.18-2.62,8.76-.78,11.7,2,3.18-2.32,6.88-3.14,11.07a4.89,4.89,0,0,0,4.37,5.8c1.4.13,2.54.25,2.67.3,3.84,1.59,3,4.07,3,4.87-.42,4.56-1.51,9.08-1.63,13.64a123.42,123.42,0,0,0,.84,15.84c.28,2.68.65,5.35,1.06,8a119,119,0,0,0,2.09,20.8c-.57,2.3,0,4.79.44,7.32.59,3.14.81,6.34,1.16,9.52.49,4.47,1.44,9,1.21,13.4a13.56,13.56,0,0,0,2.47,9.1c4.91,6.33,2,13.13,1.35,20s-.91,14.1.38,20.84c1.81,9.39,5.45,18.42,7.86,27.72,1.42,5.49,2,11.2,2.85,16.83.06.39-.44,1.25-.7,1.26-2.21.07-2,1.18-1.41,2.71a17.31,17.31,0,0,1,.28,2.66c.68,3.61,1.44,7.21,2.1,10.83a10.94,10.94,0,0,1,0,3.13,46.31,46.31,0,0,1-1.26,6.57,40.61,40.61,0,0,1-2.65,6.76H92.76c-.09-2.43-.31-4.85-.5-7.28-.36-4.41-1.2-8.79-1.78-13.19a11,11,0,0,1,.2-3.75,9.84,9.84,0,0,0-2-9.64c-5.51-5.62-2.1-12-2.46-18-.1-1.76.48-3.55.63-5.34,1-11.9,2-23.8,0-35.72-1.35-8,0-15.84,2.94-23.4a3.75,3.75,0,0,0,.22-.53c.58-2.68,1-5.21,3.12-7.49,1.68-1.84,2.27-4.75,3.07-7.28,1.48-4.65,2.76-9.36,4.06-13.82.58,3.85,1.56,8,1.71,12.15.1,2.63-1.13,5.3-1.56,8a2.63,2.63,0,0,0,.9,2.25c2.5,1.17,3.55,2.77,4.25,5.66,1.51,6.25,4.4,12.16,6.06,18.4a46.5,46.5,0,0,1,1.37,12.85c-.15,6.71-1.72,13.46-1.32,20.11.45,7.49,2.41,14.89,3.71,22.34.45,2.59,1,5.16,1.33,7.77a2.37,2.37,0,0,1-.9,1.69c-2.13,1.77-1.89,4.54.47,6.09a2,2,0,0,1,.39,1.93,13.6,13.6,0,0,0-2.29,14.8,5.11,5.11,0,0,1,.21,2.42,57.17,57.17,0,0,1-.85,8c-.08.34-.17.67-.26,1h36.43a16.93,16.93,0,0,0-3.94-8.6,7.83,7.83,0,0,0-2.88-2.2c-2.83-.91-2.92-2.7-2.62-5.25a22.54,22.54,0,0,0-.56-7.22c-.32-1.46-2-2.69-2.12-4.1a32,32,0,0,1,.44-8c1.28-7.58,2.79-15.11,4.16-22.67,1-5.42,1.93-10.84,2.79-16.28,1.06-6.69-.08-13.24-2.21-19.51-2.61-7.68-1.8-15.49-1.73-23.29,0-.56,1.35-1.06,2-1.69s1.54-1.39,1.6-2.16c.44-5.66.38-11.38,1.09-17,1.37-10.87,3.51-21.66,4.62-32.55.75-7.34.24-14.81.36-22.21,0-.84.72-1.69.66-2.5-.16-2.19-.55-4.36-.86-6.54a13,13,0,0,1-.26-1.71c0-6.14,0-12.27,0-18.41,0-.32,1-1,1.48-.89,1.54.32,2.37.15,2.59-1.7a41.52,41.52,0,0,1,1.51-6.91,2.34,2.34,0,0,1,2-1.07c3.77.67,4.76-.41,5.28-4.74a12.12,12.12,0,0,1,1-3.62c1.25-2.66.49-4.36-2.31-5.29a2.76,2.76,0,0,1-1.69-1.7c-.57-4.86-.94-9.75-1.42-14.62-.23-2.35-.55-4.69-.82-7-.08-.69-.4-1.51-.15-2.05,1.08-2.26-.39-3.79-1.08-5.69-.49-1.36.26-3.25.69-4.84.59-2.19,1.64-3.38,3.52-.9a.4.4,0,0,0,.14.13c4.34,1.9,8.62,3.94,13.06,5.57,1,.38,2.92-.29,3.83-1.12a48.36,48.36,0,0,0,5.48-6.25A3.62,3.62,0,0,0,184,168c-.67-3.28.32-5.87,2.3-8.59,3.21-4.39,2.4-7.71-1.35-11.94l-.18-.51a22.94,22.94,0,0,0-.43-6.82,14.32,14.32,0,0,0-3.8-6.87,26.3,26.3,0,0,0-2.77-2q-1.7-2.78-3.4-5.57a2.21,2.21,0,0,1-.43-1.21c.71-6.74-1.23-13.09-3.54-19.18-1.61-4.25-4.55-8-6.88-12a12.06,12.06,0,0,1-.54-1.2c.43-.07.85-.15,1.28-.2a6.26,6.26,0,0,1,.77,0c7.1.1,6,1.07,7-6.05.83-5.85-.21-12-.59-18,0-.58-1.29-1.57-2-1.56-7.84.1-15.68.33-23.52.6a10.57,10.57,0,0,1-1.29,0,21.76,21.76,0,0,0-1.49-3.4c-.71-1.29-2-2.47-2.51-3.83a11.3,11.3,0,0,1-.62-2.73,3.08,3.08,0,0,0-.41-2,6.18,6.18,0,0,0-.38-1c-2.55-5.09-8-6-13.29-6.89.45-2.45,1-5.09,1.19-7.76.08-.93-1.22-2-1.89-3-.21-.31-.62-.62-.61-.92.09-4.54.51-9.1.27-13.62-.12-2.38-1.32-4.71-2.09-7-.28-.85-1.06-1.65-1-2.45.12-3-2.45-4.26-3.91-6.23-2.14-2.89-5.22-3.12-8.27-3.47A14.56,14.56,0,0,0,104.56.22c-3.27-.74-6.1.55-9.23,1.13A10.48,10.48,0,0,0,86.75,12.8a14,14,0,0,1-2.18,2.81c-3.69,3.65-3.46,8.48-4.11,13.1-.4,2.85,0,5.8-2.13,8.5-.86,1.06.57,3.93.88,6,.24,1.59.37,3.2.55,4.81-2,.07-3.94.15-5.91.2-.29,0-.64-.3-.86-.21-4,1.64-8,3.17-11.9,5.1-.92.46-1.67,2.28-1.64,3.45a76.22,76.22,0,0,0,1,9.33c.25,1.69-.38,2.15-2,2.13-8.42-.14-16.84-.14-25.25-.38-2.43-.07-3.08.74-3,3.07.14,5.79.07,11.58,0,17.37,0,2.48.62,3.69,3.58,3.4,2.24-.22,4.5-.32,6.76-.39q3,.49,6.07,1l-.55.11a5.5,5.5,0,0,0-3,1.61c-1,1.25-1.37,3-2.34,4.28a24.69,24.69,0,0,1-3.55,3.34c-1.26,1.11-2.46,2.35-3.73,3.44A41,41,0,0,0,20.71,117a37.45,37.45,0,0,0-4.1,8.76,11.16,11.16,0,0,1-1.49,1.31c-3.12,2.17-6.37,4.15-9.44,6.38-4.08,3-5.17,7.4-3.76,12.35.4,1.41-.37,3.18-.7,4.77C.84,152.34,0,154.09,0,155.82a19.73,19.73,0,0,0,1.46,5.76C2.79,165.35,5.62,166.3,10.54,165.15Z" transform="translate(0 0)"/></g></g></svg>