<svg xmlns="http://www.w3.org/2000/svg" xmlns:xlink="http://www.w3.org/1999/xlink" viewBox="0 0 1920 486.17"><defs><style>.cls-1{fill:url(#linear-gradient);}.cls-2{fill:url(#linear-gradient-2);}.cls-3{fill:#73a6c4;}.cls-4{fill:#6391c9;}</style><linearGradient id="linear-gradient" x1="960" y1="149.42" x2="960" y2="282.79" gradientUnits="userSpaceOnUse"><stop offset="0" stop-color="#6ba6ae"/><stop offset="1" stop-color="#8ac6bf"/></linearGradient><linearGradient id="linear-gradient-2" x1="1410.51" y1="149.53" x2="1436.73" y2="341.76" xlink:href="#linear-gradient"/></defs><title>hills</title><g id="Layer_2" data-name="Layer 2"><g id="Layer_1-2" data-name="Layer 1"><path class="cls-1" d="M1920,110.17c-52.72-7.62-105-14.76-159.79-20.73C1673.7,80.92,1594.4,58.79,1515.1,67.3c-144.18,17-273.95,52.78-432.55,56.19-122.55,3.41-216.27-28.95-324.41-46-14.42-1.7-28.84,0-43.26,0-79.3,6.81-115.35,34.05-194.65,22.13C354.44,74.11,296.76,29.84,123.74,4.3A416.31,416.31,0,0,0,0,4.94v481c144.23,1.37,1847.6-3,1920-1"/><path class="cls-2" d="M1789.63,108.92c-95.08,12-177.2,48-272.29,66-64.83,15-134-21-190.17,0C1219.12,214,1150,295,1029,307c-29.32,2.55-58.64,4.05-88,4.86V485h979V107.13A693,693,0,0,0,1789.63,108.92Z"/><path class="cls-3" d="M1920,273c-412.86,13.09-819-14.75-1212.32-69.67C599.54,192.24,477,186.69,368.85,189.46,243.13,191.26,123.41,171,0,158.72V485H1920"/><path class="cls-4" d="M1920,137.06c-203.77,20.32-383.65,39-524.78,114.18-50.46,27-147.23,72.28-233.36,67.75-305.19-16-364.06,52-551.5,64-220.4,14-419.78,3-610.36,48v54H1920"/></g></g></svg>