<svg xmlns="http://www.w3.org/2000/svg" viewBox="0 0 483.9 256.97"><defs><style>.cls-1{fill:#fff;}</style></defs><title>main-text</title><g id="Layer_2" data-name="Layer 2"><g id="Layer_1-2" data-name="Layer 1"><path class="cls-1" d="M55.71,70.35l5-.87q27.42-5.21,38.22-5.21,7.82,0,7.82,6.33,0,4-3.1,5.33-2.11,1-7.2,1.24-32.14,2-48.89,7.57-6.58,9.8-19.23,36.6a225.67,225.67,0,0,0-11.42,28.91q2.85-1,5.58-2,18.36-6.2,27-8.06A114.5,114.5,0,0,1,71.22,138q6.7,0,9.93,1.61Q84,141,84,144.8a4.91,4.91,0,0,1-3.47,5.09,37.41,37.41,0,0,1-7.69.62Q40,152.24,14.27,166.64a12.32,12.32,0,0,1-5.71,1.86q-3.48,0-6.2-3.6A9.74,9.74,0,0,1,0,158.82q0-3.1,7.82-22.83Q19.6,106.09,40,70.48,46,59.68,63,34.12q3.84-6,7.44-11.66-5-1.24-5-6.58,0-4,4-5.83,6.45-3,24.82-5.83Q121.72,0,140.83,0q10.8,0,10.79,5.71a8.08,8.08,0,0,1-3.72,6.7q-1.86,1.37-6,1.36l-2.85-.12H135a254.35,254.35,0,0,0-25.81,1.86A147.7,147.7,0,0,0,84,20.22a6,6,0,0,1,1.24,3q0,2.11-5.83,9.68l-6,9.18Q60.67,60.92,55.71,70.35Z"/><path class="cls-1" d="M112.54,125.81q-.37-3.84-.37-7.44,0-3.35.25-8.31.37-8.31.37-9.68.12-7.82,1.61-10.42a5.83,5.83,0,0,1,5.34-3.35,4.86,4.86,0,0,1,3.72,1.61,6.91,6.91,0,0,1,1.61,4.47,46.48,46.48,0,0,1-.37,5,67.66,67.66,0,0,0-.37,7.82q0,1.86.12,5.83,2.48-2.85,10.3-11.54Q147,85.86,151.5,85.86a3,3,0,0,1,2.36,1.24,5,5,0,0,1,1,3q0,3.1-3.85,6.45a173.72,173.72,0,0,0-26.68,29.53q-.13,2-.12,2.73,0,9.43.37,13,.62,5,4.22,5t9.68-7.69a142.64,142.64,0,0,0,10.67-15.26q3.23-5.46,6.45-5.46,2.61,0,2.61,3.1,0,5.71-12,22a99.08,99.08,0,0,1-12.16,14q-5.71,5.09-10.92,5.09-7.32,0-9.06-9.18a95.88,95.88,0,0,1-1.49-14q-2.48,2.86-10.05,12.41-11.41,14.52-15.76,14.52-3.84,0-3.85-6.45a6.75,6.75,0,0,1,1.61-4.34,41.75,41.75,0,0,1,5.33-5.09A135.71,135.71,0,0,0,104,135.86Q110.43,128.17,112.54,125.81Z"/><path class="cls-1" d="M195,96.28q5.09-3.23,7.57-4.47a22.56,22.56,0,0,1,9.93-2.48q5.46,0,8.19,3.16t2.73,9.49q0,8.69-6.08,20.84-9.43,19.23-22.83,30.27-11.29,9.31-21.22,9.31-5.46,0-10.79-4.22a759.86,759.86,0,0,0-30.4,70.1q-2.85,8.56-6.7,8.56-1.86,0-3.72-2.48a6.09,6.09,0,0,1-1.36-3.85q0-6.7,16.38-43.55,25.31-56.83,48-94.42,4.71-7.94,6.33-10.92,4.34-8.06,8.44-8.07t4.22,5.09q0,2.86-3,7.69Q197.16,92.56,195,96.28Zm-27.92,51.49a9,9,0,0,0,6.82,2.85q11.54,0,25.56-20.47a76.29,76.29,0,0,0,8.31-15.51q2.48-6.33,2.48-9.55a4.72,4.72,0,0,0-1.05-3.35,4.33,4.33,0,0,0-3.29-1.12q-5.83,0-14.27,8.07-8.07,7.82-15.51,22Q169.36,143.68,167.13,147.78Z"/><path class="cls-1" d="M246.67,121q-3.72,9.68-5.58,15.63t-1.86,8.31q0,3.1,3,3.1,4.47,0,11.54-8.44a153.17,153.17,0,0,0,9.93-14.77q2.6-4.22,5.46-4.22,3.23,0,3.23,3.1,0,5.34-12.28,21.59-12.78,17-23.7,17a9.2,9.2,0,0,1-7.69-4,11.37,11.37,0,0,1-2.11-6.95q0-6.95,4.22-19.23a303.22,303.22,0,0,1,12.53-29.9q21.34-44.79,43.55-73.83Q304.61,5.09,316.27,5.09a7.53,7.53,0,0,1,6.08,2.85,9.73,9.73,0,0,1,2.48,6.58q0,17.37-31,57.82a299.32,299.32,0,0,1-33.25,36Q255.47,113,246.67,121Zm8.81-19.73q25.81-22.08,46.16-55.83,10.55-17.49,10.55-23.2,0-2.73-2.36-2.73Q303,19.48,285,46.65,270.12,69,255.48,101.25Z"/><path class="cls-1" d="M328.8,82.14Q339,82.14,339,94.55q0,16.5-15.26,41.81-16.63,27.42-32.14,27.42-7.2,0-10.55-6.7A17.34,17.34,0,0,1,279.3,149q0-15.88,10.92-34.49,10.17-17.24,23.95-26.8Q322.23,82.14,328.8,82.14ZM315.9,129q-3.1-2.48-3.1-3.85,0-1,4-5.46,11.17-12.53,11.17-20.22a3.73,3.73,0,0,0-.62-2,3.29,3.29,0,0,0-3.1-1.86q-4,0-11.66,7.69a78.29,78.29,0,0,0-15.14,20.47q-6.08,12-6.08,20a6.37,6.37,0,0,0,1.12,3.72,4.87,4.87,0,0,0,4.09,2.23q6,0,12.78-8.93a38.43,38.43,0,0,0,4.84-7.69A23.32,23.32,0,0,0,315.9,129Z"/><path class="cls-1" d="M362.43,121.35a242.11,242.11,0,0,1,28-25.44,116.44,116.44,0,0,1,12.16-8.31q3.22-1.86,4.09-1.86,1.86,0,3.72,2.73a4.69,4.69,0,0,1,1.12,2.73q0,2.23-4.71,6.08-12.66,10-12.66,15.14,0,2.86,3.23,2.85,5.33,0,18.36-8.81A7.23,7.23,0,0,1,419.5,105a2.87,2.87,0,0,1,2,1,3.32,3.32,0,0,1,1.12,2.36q0,3.72-10.42,11.42-10.92,8.19-20.72,8.19a13.46,13.46,0,0,1-7.32-2.11q-2.86-1.74-2.85-6.2,0-3.1,2.61-7.07-9.8,7-23.08,23.82A172.42,172.42,0,0,0,345.55,162q-2.85,5.71-7.07,5.71-4.59,0-4.59-4.34t7.2-22.58q10.67-27.3,22.33-42.31,7.2-9.31,12-9.31a5,5,0,0,1,3,1,3.78,3.78,0,0,1,1.61,3.1q0,1.86-2.48,5.21L371,106.83A65.32,65.32,0,0,0,362.43,121.35Z"/><path class="cls-1" d="M427.2,138.35v2.23a8.1,8.1,0,0,0,1.37,4.71q3.1,4.59,10.17,4.59,15.51,0,35.86-23.82,3.6-4.09,6.08-4.09a3.59,3.59,0,0,1,3.23,3.23q0,4.84-11.91,16.38a89.62,89.62,0,0,1-19.85,14.77Q441.59,162,432.53,162q-9.3,0-14.64-6.45-3.6-4.47-3.6-12.16,0-21,19.73-41.07Q450,86,461.94,86a9.39,9.39,0,0,1,5.83,2A8.35,8.35,0,0,1,471,94.79q0,6.58-6.08,16.13Q452.38,130.78,427.2,138.35Zm2.73-9.68a49.89,49.89,0,0,0,13.65-6.7,55.15,55.15,0,0,0,13.77-15.14,10.36,10.36,0,0,0,1.86-5.34q0-2.48-2.36-2.48-3.23,0-9.18,4.84Q437,112.41,429.93,128.67Z"/><path class="cls-1" d="M216.23,235q2.37,0,2.37,1.93,0,1.45-2.2,2.2-3.78,1.36-3.78,4.88a5.11,5.11,0,0,0,2.2,4.39,8.18,8.18,0,0,0,4.79,1.32,16.05,16.05,0,0,0,10.15-3.38,6.66,6.66,0,0,0,2.72-5.45,8.23,8.23,0,0,0-.79-3.65,40.22,40.22,0,0,0-2.55-4.22q-2.64-4-4.44-7.21a14.4,14.4,0,0,1-2-7.08q0-8.22,8.13-15.38a38.52,38.52,0,0,1,9.49-6.06,20.64,20.64,0,0,1,8.3-1.89,7.08,7.08,0,0,1,4.39,1.36,5.23,5.23,0,0,1,2.2,4.44q0,4.39-4.75,9.49A37.33,37.33,0,0,1,240,218.52a11.47,11.47,0,0,1-4.53,1.49,2.42,2.42,0,0,1-1.8-.83,1.83,1.83,0,0,1-.53-1.27q0-1.63,2.9-2.64a30.25,30.25,0,0,0,9.4-5.32q5.27-4.39,5.27-7.69a2.46,2.46,0,0,0-1.05-2.07,3.24,3.24,0,0,0-2-.62,17.7,17.7,0,0,0-7.6,2.33,26.11,26.11,0,0,0-9.67,8,14.25,14.25,0,0,0-3.08,8.31,13.09,13.09,0,0,0,1.63,6.06q1.36,2.5,3.47,5.67t3.43,5.63a12.41,12.41,0,0,1,1.63,5.76q0,5.19-5.93,9.18a20.26,20.26,0,0,1-11.43,3.34q-6.28,0-9.84-3.47a8.27,8.27,0,0,1-2.68-6.06,8.79,8.79,0,0,1,2.55-6.42,9.84,9.84,0,0,1,3.65-2.37A6.89,6.89,0,0,1,216.23,235Z"/><path class="cls-1" d="M250.42,237.51a85.71,85.71,0,0,1,9.93-9,41.15,41.15,0,0,1,4.31-2.94,4.5,4.5,0,0,1,1.45-.66q.66,0,1.32,1a1.67,1.67,0,0,1,.4,1q0,.79-1.67,2.15-4.48,3.56-4.48,5.36,0,1,1.14,1,1.89,0,6.5-3.12a2.56,2.56,0,0,1,1.32-.53,1,1,0,0,1,.7.35,1.18,1.18,0,0,1,.39.83q0,1.32-3.69,4a12.42,12.42,0,0,1-7.34,2.9,4.77,4.77,0,0,1-2.59-.75,2.36,2.36,0,0,1-1-2.2,4.73,4.73,0,0,1,.92-2.5,43.51,43.51,0,0,0-8.17,8.44,61,61,0,0,0-5.4,9.1q-1,2-2.51,2t-1.62-1.54q0-1.49,2.55-8,3.78-9.67,7.91-15,2.55-3.3,4.26-3.3a1.76,1.76,0,0,1,1.05.35,1.34,1.34,0,0,1,.57,1.1,3.6,3.6,0,0,1-.88,1.85l-2.33,2.94A23.13,23.13,0,0,0,250.42,237.51Z"/><path class="cls-1" d="M281.44,225.64a1.54,1.54,0,0,1,1.23.57,1.64,1.64,0,0,1,.35,1,5.92,5.92,0,0,1-1.27,2.64,81.12,81.12,0,0,0-6.5,11.65,98,98,0,0,0-3.65,9.67q-.7,2.2-2.2,2.2a1.67,1.67,0,0,1-1.41-.7,1.87,1.87,0,0,1-.48-1.23q0-1.32,2.81-8.79a60.93,60.93,0,0,1,7.12-13,24.32,24.32,0,0,1,2.37-3.12A2.27,2.27,0,0,1,281.44,225.64Zm8.35-16.3a1.77,1.77,0,0,1,2,2,6.57,6.57,0,0,1-1.93,4.09q-1.85,2.15-3.56,2.15a1.71,1.71,0,0,1-1.36-.62,2,2,0,0,1-.53-1.41q0-2.11,2.33-4.48A4.7,4.7,0,0,1,289.79,209.34Z"/><path class="cls-1" d="M309.35,248.27l1.76-.53q10.15-3.12,14.55-3.12,3.3,0,3.3,2.46a2.36,2.36,0,0,1-.75,1.71,2.31,2.31,0,0,1-1.67.75,8.86,8.86,0,0,1-1.27-.13,6.48,6.48,0,0,0-1.14-.13,26.52,26.52,0,0,0-6.81,1.19q-1.54.48-5.93,2.46a12.52,12.52,0,0,1-4.83,1.32A2.63,2.63,0,0,1,304.3,253a4.28,4.28,0,0,1-.83-2.5q0-1.62,1.8-5.49A159.4,159.4,0,0,1,317,223.53q9-13.62,14-20,1.36-1.71,2.72-3.47,2.15-2.9,3.74-2.9a1.94,1.94,0,0,1,1.41.62,1.87,1.87,0,0,1,.57,1.27,6.2,6.2,0,0,1-1.49,3l-3.65,4.79q-6.24,8.22-9.29,12.57t-6.53,10.06Q311.68,240.67,309.35,248.27Z"/><path class="cls-1" d="M345,244.71a33.24,33.24,0,0,1-2.86,4.31q-2.77,3.43-5.49,3.43a4.09,4.09,0,0,1-3.69-2.24,6.75,6.75,0,0,1-.83-3.43A23.58,23.58,0,0,1,335.23,236a28.45,28.45,0,0,1,8.26-10.06,10.51,10.51,0,0,1,6.11-2.29,4.35,4.35,0,0,1,3.08,1.14,3.1,3.1,0,0,1,1.05,2.29,7.32,7.32,0,0,1-.75,2.68,2.94,2.94,0,0,1,.66,1.63,7.37,7.37,0,0,1-1.23,3,33.86,33.86,0,0,0-2.55,5.71,19,19,0,0,0-1.36,6.06,4.29,4.29,0,0,0,1.1,3,8.29,8.29,0,0,0,1.8,1,1.88,1.88,0,0,1,1.1,1.85,1.71,1.71,0,0,1-.62,1.36,2.28,2.28,0,0,1-1.54.57,5.12,5.12,0,0,1-4.09-2.11,6.57,6.57,0,0,1-1.41-4.31Q344.86,246.73,345,244.71Zm5.49-14.46a4.39,4.39,0,0,0-1.14-1.43,2.16,2.16,0,0,0-1.32-.46q-3.34,0-7.25,5.84-4.31,6.46-4.31,10.94a2.8,2.8,0,0,0,.42,1.67,1.45,1.45,0,0,0,1.25.57q2.11,0,4.92-4.48a74.17,74.17,0,0,0,3.91-7.25,38.3,38.3,0,0,1,2.24-4.13A6.43,6.43,0,0,1,350.53,230.26Z"/><path class="cls-1" d="M363.53,236.89q.57-.53,1.1-1.05,9.18-9,12.3-9,1.71,0,1.71,1.89a5.21,5.21,0,0,1-1.54,3.12q-8.39,9.8-8.39,17.27a8.83,8.83,0,0,0,1.32,4.61,3.41,3.41,0,0,1,.62,1.58,1.38,1.38,0,0,1-.53,1,1.8,1.8,0,0,1-1.36.62q-1.8,0-3-2.29a10.69,10.69,0,0,1-1.19-5.23q0-5.93,4.48-13.14-6,3.82-11.12,13.54-1.32,2.33-2.81,2.33a1.6,1.6,0,0,1-1.23-.53,2.14,2.14,0,0,1-.62-1.58q0-2.37,5.41-12.44,2.9-5.45,4.57-7.91t2.86-2.42a1.56,1.56,0,0,1,1.1.53,1.94,1.94,0,0,1,.62,1.41,5.6,5.6,0,0,1-1.27,2.77A47,47,0,0,0,363.53,236.89Z"/><path class="cls-1" d="M396.58,233.16q-2.86,7.08-2.86,10.77a5.78,5.78,0,0,0,.7,3,2.63,2.63,0,0,0,2.33,1.49q3,0,6.9-4a32.91,32.91,0,0,0,4.35-5.19q1.14-1.76,2.15-1.76a.89.89,0,0,1,1,1q0,1.67-4,6.86-6,7.69-11.6,7.69a4.88,4.88,0,0,1-4.79-3.3,12.61,12.61,0,0,1-1.05-5.1,31.24,31.24,0,0,1,1.05-6.64q-2.86,2.37-8.66,11.6-1.54,2.5-2.81,2.5a1.46,1.46,0,0,1-1.14-.57,2,2,0,0,1-.48-1.23q0-1.76,4.61-11.73a152.88,152.88,0,0,1,17.4-29.36,50.2,50.2,0,0,1,9-9.49q3.6-2.72,5.76-2.72a2.3,2.3,0,0,1,1.71.79,3.23,3.23,0,0,1,1,2.37q0,3.74-3.91,9.58-4.09,6-13.89,14.55a80.32,80.32,0,0,1-9.89,7.47q-.57,1.14-3.21,6.68a61.49,61.49,0,0,1,8.7-8.17,35.22,35.22,0,0,1,5.58-2.94,10.28,10.28,0,0,1,3.43-1,1.39,1.39,0,0,1,1,.44,1.29,1.29,0,0,1,.48,1.05q0,1.45-2,2A26.35,26.35,0,0,0,396.58,233.16Zm-3.78-7.56a63.75,63.75,0,0,0,13.45-12.08,43.87,43.87,0,0,0,5-7,8.56,8.56,0,0,0,1.32-3.38q0-1-.92-1-2.46,0-8.48,7.56A122.09,122.09,0,0,0,392.8,225.6Z"/><path class="cls-1" d="M423.48,244.71a33.24,33.24,0,0,1-2.86,4.31q-2.77,3.43-5.49,3.43a4.09,4.09,0,0,1-3.69-2.24,6.75,6.75,0,0,1-.83-3.43A23.58,23.58,0,0,1,413.68,236a28.45,28.45,0,0,1,8.26-10.06,10.51,10.51,0,0,1,6.11-2.29,4.35,4.35,0,0,1,3.08,1.14,3.1,3.1,0,0,1,1.05,2.29,7.32,7.32,0,0,1-.75,2.68,2.94,2.94,0,0,1,.66,1.63,7.37,7.37,0,0,1-1.23,3,33.86,33.86,0,0,0-2.55,5.71,19,19,0,0,0-1.36,6.06,4.29,4.29,0,0,0,1.1,3,8.29,8.29,0,0,0,1.8,1,1.88,1.88,0,0,1,1.1,1.85,1.71,1.71,0,0,1-.62,1.36,2.28,2.28,0,0,1-1.54.57,5.12,5.12,0,0,1-4.09-2.11,6.57,6.57,0,0,1-1.41-4.31Q423.3,246.73,423.48,244.71ZM429,230.26a4.39,4.39,0,0,0-1.14-1.43,2.16,2.16,0,0,0-1.32-.46q-3.34,0-7.25,5.84Q415,240.67,415,245.15a2.8,2.8,0,0,0,.42,1.67,1.45,1.45,0,0,0,1.25.57q2.11,0,4.92-4.48a74.17,74.17,0,0,0,3.91-7.25,38.3,38.3,0,0,1,2.24-4.13A6.43,6.43,0,0,1,429,230.26Z"/></g></g></svg>