<svg xmlns="http://www.w3.org/2000/svg" xmlns:xlink="http://www.w3.org/1999/xlink" viewBox="0 0 317.59 295.43"><defs><style>.cls-1{fill:url(#linear-gradient);}.cls-2{fill:#344451;}</style><linearGradient id="linear-gradient" x1="147.71" y1="295.43" x2="147.71" gradientUnits="userSpaceOnUse"><stop offset="0" stop-color="#fff" stop-opacity="0"/><stop offset="0.99" stop-color="#fff"/></linearGradient></defs><title>moon</title><g id="Layer_2" data-name="Layer 2"><g id="Layer_1-2" data-name="Layer 1"><circle class="cls-1" cx="147.71" cy="147.71" r="147.71"/><path class="cls-2" d="M315.08,160.19,294.6,178.05a1.51,1.51,0,0,1-1.83.12L268.59,162.1a1.51,1.51,0,0,0-2.07,2.13l21.42,30.38a1.51,1.51,0,0,0,2.16.32l5.94-4.65a5.26,5.26,0,0,1,4-1.06l9.74,1.5a1.51,1.51,0,0,0,1.46-2.36l-4.05-5.75a1.51,1.51,0,0,1-.09-1.59l10.26-19A1.51,1.51,0,0,0,315.08,160.19Z"/><path class="cls-2" d="M183.9,245.15l-21.38-9.27a1.42,1.42,0,0,0-1.26.06l-16,8.92a1.42,1.42,0,0,0,.85,2.65l16.18-1.79a1.42,1.42,0,0,1,.94.23l22.22,14.76a1.42,1.42,0,0,0,2-.43l12-19a1.42,1.42,0,0,1,1.38-.65l8,1a1.42,1.42,0,0,0,1-2.58l-11-7.67a1.42,1.42,0,0,0-1.89.24l-11.34,13.14A1.42,1.42,0,0,1,183.9,245.15Z"/><path class="cls-2" d="M280.86,262.56l-13.92-6a.93.93,0,0,0-.82,0l-10.42,5.81a.92.92,0,0,0,.55,1.73l10.53-1.16a.92.92,0,0,1,.61.15l14.46,9.6a.92.92,0,0,0,1.29-.28L291,260a.92.92,0,0,1,.9-.42l5.2.67a.92.92,0,0,0,.65-1.68l-7.19-5a.92.92,0,0,0-1.23.16l-7.38,8.55A.92.92,0,0,1,280.86,262.56Z"/></g></g></svg>