<svg xmlns="http://www.w3.org/2000/svg" viewBox="0 0 820.3 377"><defs><style>.cls-1{fill:#344451;}</style></defs><title>tree-leave</title><g id="Layer_2" data-name="Layer 2"><g id="Layer_1-2" data-name="Layer 1"><path class="cls-1" d="M.13,237.24c0-.74-.09-1.47-.13-2.21v33.14c.44,1.62.89,3.25,1.33,4.85l.62,2.25a15.76,15.76,0,0,0,1,2.58c.17.36.34.72.5,1.09a.6.6,0,0,0,.55.38.67.67,0,0,0,.59-.37,2.43,2.43,0,0,0,.29-1.77C2,264,.88,250.18.13,237.24Z"/><path class="cls-1" d="M819.73,154.74a48.77,48.77,0,0,0-7.62-7.42q-7.71-6.2-15.45-12.34c-13.19-10.46-26.9-21.05-40.54-31-43.29-31.6-84.63-53.31-125.57-67.41a111.07,111.07,0,0,1-12.9-5.8l-1-.51a343.8,343.8,0,0,0,47.76,8.68l8.65.92c12.07,1.3,24.56,2.73,36.91,4.53a258.61,258.61,0,0,1,62.91,17.14c1.54.64,3.07,1.13,4.56,1.6.68.22,1.35.43,2,.66a.88.88,0,0,0,1.13-.37,1.75,1.75,0,0,0-.08-1.54,7,7,0,0,0-2.93-3.47l-1-.5c-2.68-1.37-5.45-2.78-8.2-4a394.82,394.82,0,0,0-79.28-25.46c-34.19-7.16-59.63-8.8-82.51-6.26-6.41.72-12.52-2.79-19-6.46l-.24-.14h.29c21,1.29,42,.56,60.44.07,20.63-.56,41.74-.63,62.2-.49q8.86.06,17.73.16c3.55,0,7.21.23,10.75.43l5,.27a.85.85,0,0,0,.9-.7,2.06,2.06,0,0,0-.37-1.55,6.4,6.4,0,0,0-3.86-3L725.93,7.91c-11.84-2.3-24.08-4.59-36-6.27C685.38,1,680.92.48,676.48,0H595.61a126.82,126.82,0,0,0-25.14,5.91,12,12,0,0,1-9-.44c-4.86-1.95-9.8-3.74-14.58-5.45H511.47A27,27,0,0,1,515,3.89c21.68,28.21,47.3,57,78.16,88.93,8.53,8.83,17.54,17.37,26.21,25.73q3.76,3.63,7.5,7.29c2.39,2.35,5,4.46,7.44,6.51,1.13.93,2.25,1.86,3.36,2.82.6.52,1.33.55,1.69.08a1.69,1.69,0,0,0-.23-2c-6.24-8.1-12.25-15.35-18.33-22.17-16.37-18.34-31.34-37.36-46.77-56.56l-4.84-6C556.3,32.5,542.71,16.14,526.68,2.92l1.9.57c3.77,1.13,7,2.12,10.37,3s6.06,2.88,9.21,6.58c10.84,12.72,22.37,26.5,33.93,40.11,17.8,20.94,37.1,40.89,55.51,60.7l2.2,2.37c8,8.68,16.53,17.12,24.69,25.38q3.77,3.82,7.52,7.67c3.89,4,8.1,8.1,13.26,12.88,3.37,3.12,6.85,6.18,10.21,9.14q2.22,2,4.43,3.95a1.2,1.2,0,0,0,1.55.24,1.43,1.43,0,0,0,.19-1.67,29.91,29.91,0,0,0-5.29-7.86l-.54-.63q-4.6-5.43-9.24-10.81c-8.6-10-17.57-20.19-26.37-30.21-16.52-18.82-31.48-39-46.24-58.24C599.5,47.3,584.73,29.5,566.21,15.94l2.36.86c4.83,1.76,9.39,3.43,13.88,5,3.07,1.08,5.47,3.15,8,6.93,19.48,29.14,42,55.1,61.23,77.14,10.58,12.09,21.78,23.9,32.53,35.48q3.55,3.83,7.08,7.68c3.58,3.92,7.42,7.58,11.13,11.15,1.7,1.63,3.4,3.27,5.07,4.94.57.57,1.3.68,1.7.26a1.65,1.65,0,0,0-.07-2c-3.33-5.2-7-10-10.57-14.59l-2.87-3.71q-4.4-5.72-8.85-11.38c-8.53-10.88-17.44-22-26-33.09-5.71-7.42-11.35-15.14-16.84-22.57-12.19-16.49-25-33.28-40.51-47.73a27.53,27.53,0,0,1,13.12,10.13A439,439,0,0,0,645,75.88c29.93,33.2,57.88,61.07,86.13,84.8,5.78,4.86,11.73,9.6,17.46,14.23q4,3.23,8,6.52a1.36,1.36,0,0,0,1.08.36.81.81,0,0,0,.37-.17,1.41,1.41,0,0,0,.24-1.57,15.56,15.56,0,0,0-4.06-6.1c-3.17-3.26-6.44-6.49-9.61-9.6-6.95-6.82-14.16-13.8-20.76-21.2-21.78-24.38-38.35-42.8-53.45-60.27a338.33,338.33,0,0,0-34.8-34.65c44.66,27.88,90.22,52.71,134.12,78.66,16.13,9.54,32.76,19.67,49,30.19.62.4,1.25.29,1.5-.28A2.15,2.15,0,0,0,819.73,154.74Z"/><path class="cls-1" d="M650.07,160.22c-3.73-3.52-7.6-7.14-11.17-10.94-4.12-4.4-8.36-8.8-12.47-13-13.49-13.88-27.56-28-40.24-43.1-16-19.07-32.13-37.92-48-55.79l-4.84-5.46C523.41,20.67,513,9.28,501.12,0h-19C507,29.75,533.59,56.85,556.39,80.25c14.72,15.09,31.09,30.49,50,47.32,10.53,9.37,21.32,18.8,31.7,28.07q4.6,4.11,9.18,8.26a54.26,54.26,0,0,0,4.36,3.45c.65.48,1.3,1,1.94,1.45s1.42.44,1.71-.18l.61-1.34a1.94,1.94,0,0,0-.56-2C653.59,163.54,651.83,161.88,650.07,160.22Z"/><path class="cls-1" d="M415.44,68.54c5.73,4.78,11.79,9.27,17.64,13.65,2.65,2,5.3,4,7.92,6a1.23,1.23,0,0,0,1.68.06,1.4,1.4,0,0,0-.12-1.76c-3.19-4.15-6.7-7.93-10.11-11.57-2.23-2.39-4.55-4.85-6.7-7.32-16.16-18.56-30.9-35.13-44.94-50.8-5-5.62-10.31-11.3-15.89-16.82H338.2c12.67,12.44,25.7,24.16,38.25,35.42S402.12,57.44,415.44,68.54Z"/><path class="cls-1" d="M502.6,49.51c11.23,11.16,23.12,22,33.54,31.78,9,8.37,18.22,16.69,27.12,24.84l3.95,3.62a46,46,0,0,0,5,3.86c.75.52,1.49,1,2.23,1.59a1.26,1.26,0,0,0,1.36.21,1.11,1.11,0,0,0,.43-1.24,6.66,6.66,0,0,0-1.87-3.59c-22-22.07-42.33-46.3-61.37-68.8C500,26.34,487.51,12.37,474.08,0H455.87C470.93,18.11,487.76,34.74,502.6,49.51Z"/><path class="cls-1" d="M566,116c-2-1.89-4.06-3.72-6.06-5.49-2.94-2.6-6-5.26-8.78-8.08L546,97.29c-12.07-12-24.65-24.22-36.73-36.46C495.36,46.77,481.8,32.44,469,19.18l-6.85-7.12C458.24,8,454.26,4,450.19,0H427.55C442,15.7,457.75,30.54,475.72,47.8c4.54,4.37,9.43,8.41,14.15,12.35,3.1,2.59,6.31,5.28,9.36,8,17.89,16.26,37.89,32.59,62.85,51.93,3,2.34,6.13,4.57,9.14,6.74,1.39,1,2.79,2,4.18,3a1.12,1.12,0,0,0,1.61,0,1.6,1.6,0,0,0-.2-1.84A93.49,93.49,0,0,0,566,116Z"/><path class="cls-1" d="M490,107.39c-1.77-1.93-3.56-3.83-5.37-5.72-3.61-3.8-7.36-7.7-10.76-11.73-18.38-21.78-38.15-44.63-62.57-71.38-6.13-6.7-12-12.85-17.8-18.56H370.06c17.58,19.13,37.1,38.73,59.16,59.68,12.59,12,25.88,23.62,38.63,35.12q5.47,4.93,10.89,9.93c3.37,3.11,7,5.91,10.53,8.64,1.61,1.25,3.22,2.5,4.81,3.79a1.29,1.29,0,0,0,1.54.2,1.22,1.22,0,0,0,.26-1.5A28.81,28.81,0,0,0,490,107.39Z"/><path class="cls-1" d="M457.94,251q-4.58-5.55-9.19-11.06c-7.86-9.39-16.07-19-24.32-28.05C398.24,183,372,161.47,344.89,145.4a80.72,80.72,0,0,1-8.33-6l-.65-.51a250.11,250.11,0,0,0,32.75,13.21l6,1.93c8.41,2.7,17.1,5.56,25.63,8.66a188.12,188.12,0,0,1,42.3,21.46c1,.68,2,1.26,3,1.81l1.35.77a.64.64,0,0,0,.86-.09,1.27,1.27,0,0,0,.17-1.11,5.13,5.13,0,0,0-1.58-2.9l-.62-.5c-1.71-1.37-3.47-2.78-5.25-4.05a287.17,287.17,0,0,0-52.74-29.8c-23.31-10.12-41.19-15-57.86-16.59-4.67-.43-8.51-3.83-12.59-7.39l-.15-.13.21.05c14.79,4,29.8,6.57,43.05,8.93,14.78,2.64,29.83,5.69,44.38,8.79q6.3,1.34,12.61,2.72c2.52.55,5.1,1.23,7.59,1.89l3.52.92a.62.62,0,0,0,.75-.37,1.5,1.5,0,0,0,0-1.16,4.66,4.66,0,0,0-2.3-2.73L417,139c-8.1-3.38-16.48-6.81-24.74-9.77a279.6,279.6,0,0,0-44.27-12c-12.75-2.32-27.51-4.46-41.44-2.48a8.69,8.69,0,0,1-6.33-1.64c-3.18-2.1-6.43-4.1-9.58-6-1.88-1.15-3.77-2.29-5.65-3.45-.54-.33-1.08-.69-1.61-1.07a27,27,0,0,1,3.37.4c13.62,2.2,26.94,2,39.83,1.86l4.32,0c10-.07,19.35.3,28.35,1.06q9.65,4.52,19.12,8.57a24,24,0,0,0,3,1c.56.16,1.18.33,1.88.55a1,1,0,0,0,1.31-.5,1.51,1.51,0,0,0-.39-1.59c-.38-.4-.62-.68-.8-.87a3.65,3.65,0,0,0-.92-.83c-2.61-1.49-5.23-3-7.86-4.58A204.35,204.35,0,0,1,411,116.29a16.89,16.89,0,0,0,2.5.59l1.08.21a.65.65,0,0,0,.78-.54,1.69,1.69,0,0,0-.29-1.33,9.1,9.1,0,0,0-3.69-3.23c-2.05-.94-4.1-1.9-6.16-2.87-5-2.36-10.23-4.76-15.36-6.58a228.2,228.2,0,0,0-39.73-10c-5.28-3.35-10.66-6.86-16.11-10.45q10.42-.21,20.36.11c2.94,1.53,5.87,3.05,8.78,4.53,6.57,3.33,13.29,6.54,19.79,9.68,3,1.46,6,2.93,9.05,4.44a1.07,1.07,0,0,0,1.59-.49l.41-1.21a1.65,1.65,0,0,0-.72-1.76l-1.07-.77c-.82-.59-1.66-1.21-2.56-1.74-6.31-3.75-12.64-7.67-19-11.76q5.75.46,11.37,1.11c6.1,3.61,12.22,7.17,18.34,10.61,4,2.26,8.12,4.43,12.09,6.55q2.77,1.48,5.54,3a1.19,1.19,0,0,0,1.34,0,1.15,1.15,0,0,0,.26-1.3,8,8,0,0,0-3-3.89c-3.63-2.81-7.35-5.6-11-8.28-3.28-2.44-6.62-4.92-9.94-7.41,0,0-.07-.1-.11-.13s-.35-.22-.53-.34c-4.6-3.46-9.17-7-13.58-10.6-2.39-2-4.76-4-7.13-6,1.37.09,2.75.16,4.12.27a17.32,17.32,0,0,0,1.78,0h.78c.36,0,.56-.32.61-.74C394,75.78,406.83,85.61,420,95.17c6,4.38,12.23,8.78,18.2,13.08q4.21,3,8.4,6.1a1.24,1.24,0,0,0,1.57.07,1.3,1.3,0,0,0,.08-1.6,29.35,29.35,0,0,0-6.57-7.54c-21.44-18.88-40.65-37.12-58.78-56-9-9.35-18.39-18.5-27.56-27.24q-3.6-3.44-7.21-6.85C342.77,10.11,337.18,5,331.5,0h-30c8.49,7.74,16.9,15.06,25.36,21.91,16.49,13.35,33.66,27.45,51.52,41.59a56.56,56.56,0,0,0-10.83-2.77l-.11,0c-4.93-4.22-9.82-8.44-14.64-12.57C347.37,43.45,341.69,38.65,336,34c-2.81-2.29-5.65-4.55-8.49-6.82l.39,0c.47,0,1-.1,1.69-.15a.77.77,0,0,0,.61-.92,1.65,1.65,0,0,0-.8-1.26c-.59-.32-1-.57-1.34-.76a4.58,4.58,0,0,0-1.4-.65l-4.08-.78-1.06-.2C311.79,14.78,302,7.26,292.3,0H175.12l3.6,2.48C177.25,1.67,175.66.84,174,0h-32.9L145,2.49c-1.08.66-2.16,1.29-3.24,2l-.23.15c-2.46-.9-4.92-1.69-7.37-2.45L137.17,0H47.51c-.06.5-.14,1-.2,1.52A10,10,0,0,1,47,3.13l-4.71,5c-.36.18-.72.35-1.13.52-5,2.13-10.05,4.36-15.07,6.58,1.6-1.61,3.23-3.28,4.92-5.09C34.14,6.75,37.35,3.38,40.56,0h-18c-1.6,1.77-3.16,3.52-4.64,5.26a1,1,0,0,0-.56-.13c-.62.07-1.24.11-1.86.16a33.5,33.5,0,0,0-4.14.5l-.9.16C11.92,4,13.46,2,15,.1l.08-.1H0V23.75H0c2.37-4.29,4.77-8.67,7.16-13,2.95-1,5.88-2.05,8.75-3.1A149,149,0,0,0,3.26,25.46L.57,26.68,0,26.94V63.06C3.27,65.9,6.62,68.85,10.12,72l-2,1c-2.69-2.37-5.42-4.69-8.17-7v48.92c.31,0,.62,0,.93,0,.55,0,1.1.07,1.65.09l.77,0a.68.68,0,0,0,.66-.48.72.72,0,0,0-.21-.8,7,7,0,0,0-2-1.08q3.06-1.48,6.34-3.18c2,1.42,4,2.79,6,4.14C12.14,114.81,10,116,8,117.18l-1.68,1A51.52,51.52,0,0,1,0,121.72v58.42l.63,0,1.14,1.32L0,181.3v8.87c3.51.62,7.06,1.11,10.65,1.54l.3.35C7.38,191.44,3.71,191,0,190.59v5.71c1.44.57,2.9,1.13,4.38,1.57L20,202.54l.31.36-.15-.31,5.54,1.64.5.78a177.9,177.9,0,0,0-22.92-4.23,3.43,3.43,0,0,1-1.57-.42c-.61-.48-1.16-1-1.74-1.5v8a7.14,7.14,0,0,1,1,4c0,18.39,2.82,36,5.57,50.9a222.08,222.08,0,0,0,7.54,28.81c1.9,5.78,4,11.6,6,17.22l1.77,5a18.15,18.15,0,0,0,1,2.18c.16.31.32.62.47.94a.6.6,0,0,0,.84.28l.68-.38a.76.76,0,0,0,.34-.87c-.3-1-.62-2-.94-3-.68-2.08-1.38-4.23-1.87-6.4-.57-2.5-1.18-5-1.77-7.48-1.94-8-3.94-16.35-4.83-24.8-1.12-10.65-2.14-21.34-3.13-31.68q-.15-1.58-.29-3.16c-.71-7.78-1.44-15.83-4.4-23.22a2.8,2.8,0,0,1-.14-.74l.64.64c1.22,1.23,2.28,2.3,3.4,3.29,1.47,1.29,2.07,2.89,2,5.34-.28,15.6,1.41,32.27,5.15,51,1,5.17,2.44,10.31,3.8,15.28q.59,2.16,1.17,4.31a36.2,36.2,0,0,0,1.41,4c.23.58.46,1.17.68,1.76a.6.6,0,0,0,.75.39.74.74,0,0,0,.49-.78c-.4-4.32-.91-8.29-1.55-12.12a279.1,279.1,0,0,1-3-31.26q-.09-1.66-.18-3.32c-.46-8.87-.94-18-3.37-26.74l.63.67c1.25,1.33,2.32,2.47,3.46,3.61a6.54,6.54,0,0,1,1.79,4.59c.45,7.2,1,14.92,1.67,22.53,1.09,11.73,3.47,23.33,5.77,34.55l.27,1.34c1,4.91,2.33,9.8,3.62,14.53q.59,2.19,1.18,4.38c.6,2.27,1.35,4.64,2.34,7.44.65,1.83,1.38,3.65,2.08,5.41q.47,1.17.93,2.33a.6.6,0,0,0,.65.4.71.71,0,0,0,.57-.58,9.63,9.63,0,0,0-.19-3.94l-.07-.34q-.56-2.92-1.13-5.83c-1.05-5.41-2.14-11-3.13-16.52-1.87-10.36-2.37-21-2.85-31.27-.47-10.07-1.2-19.88-4.77-29.13l.75.86c1.53,1.77,3,3.44,4.43,5a5.42,5.42,0,0,1,1.24,4.35c-1,15,1,29.43,3,41.57,1.1,6.67,2.68,13.32,4.2,19.75q.5,2.12,1,4.25c.5,2.16,1.21,4.27,1.9,6.32.31.94.63,1.87.92,2.82a.61.61,0,0,0,.72.43.73.73,0,0,0,.53-.73,68.64,68.64,0,0,0-.65-7.45c-.08-.65-.16-1.29-.24-1.94q-.35-3-.71-6c-.69-5.71-1.41-11.62-1.89-17.46-.33-3.91-.49-7.92-.64-11.8-.35-8.62-.7-17.5-2.86-26.24a9.49,9.49,0,0,1,2.53,6.61,117.33,117.33,0,0,0,1.43,19c3.12,18.5,7.72,34.37,14.07,48.51,1.3,2.89,2.73,5.77,4.11,8.55.64,1.29,1.29,2.59,1.92,3.89a.61.61,0,0,0,.4.33.58.58,0,0,0,.22,0,.7.7,0,0,0,.56-.52,4.79,4.79,0,0,0-.19-3c-.57-1.78-1.18-3.58-1.78-5.32a115.92,115.92,0,0,1-3.56-11.74c-3-13.15-5-23.24-6.44-32.74a129,129,0,0,0-4.8-20c11.08,19.9,24.39,38.21,37.29,56,4.74,6.53,9.65,13.28,14.37,20a.59.59,0,0,0,.78.18.76.76,0,0,0,.36-.81,15.23,15.23,0,0,0-1.5-4q-1.88-3.63-3.75-7.27c-3.19-6.2-6.49-12.61-9.85-18.85-10.66-19.79-22.5-36.31-36.2-50.5a40.15,40.15,0,0,1-3.86-5l-.29-.41A139.56,139.56,0,0,0,68,270.89l3.59,2.21c5,3.09,10.18,6.28,15.2,9.53a129.8,129.8,0,0,1,23.4,19c.51.53,1.07,1,1.61,1.48l.73.64a.59.59,0,0,0,.63.1.73.73,0,0,0,.42-.55,2.11,2.11,0,0,0-.3-1.79l-.3-.37c-.81-1-1.66-2.06-2.55-3a203.62,203.62,0,0,0-28-25.53l-.08-.06a1.75,1.75,0,0,0-.27-.62c-2.41-3.09-4.78-6.31-7.13-9.6,7.11,3.41,14.22,6.87,21.16,10.26l7.91,3.86c1.58.77,3.17,1.62,4.7,2.44l2.17,1.15a.6.6,0,0,0,.63,0,.76.76,0,0,0,.32-.61,2.09,2.09,0,0,0-.79-1.86q-2.83-2-5.64-4.08c-3.6-2.61-7.3-5.26-11-7.84a1,1,0,0,0-.14-.68l-.43-.72a18.17,18.17,0,0,0-1.06-1.67c-3.71-5-7.3-10.29-10.85-15.85q3.3,1.4,6.42,2.86c3.7,5.23,7.48,10.37,11.41,15.3,1.83,2.3,3.76,4.55,5.62,6.73l2.6,3a.82.82,0,0,0,.89.27,1,1,0,0,0,.62-.76,4.33,4.33,0,0,0-.64-3.08c-1.4-2.54-2.86-5.09-4.27-7.56s-3-5.22-4.44-7.89q3.53,2,6.88,4.12c1.8,3.21,3.63,6.4,5.54,9.56,2.44,4,5,8.08,7.44,12q1.74,2.76,3.46,5.52a.83.83,0,0,0,1,.36,1,1,0,0,0,.59-1,15.49,15.49,0,0,0-1.77-6,338.34,338.34,0,0,1-15.61-38.86A.69.69,0,0,0,108,241a.75.75,0,0,0-.06-.78,7.58,7.58,0,0,0-.93-1c-.74-2.29-1.51-4.57-2.2-6.87-.39-1.31-.82-2.61-1.22-3.92a.65.65,0,0,0,.71-.36.73.73,0,0,0-.16-.88c-.4-.33-.82-.65-1.24-1-1.83-5.88-3.73-11.75-5.61-17.46l-2-6.06c-1.94-5.95-4-12.1-6.23-18-2.35-6.09-5.18-12-7.65-16.9a60.11,60.11,0,0,0-3.88-6.39l-.65-1,1.07.41c2.47.95,4.8,1.84,7.11,2.64,2.76.95,4.14,2.77,4.78,6.3,3.37,18.68,9.63,36.23,15.9,52.4,3.88,10,8.43,19.68,13.14,29.51,2,4.23,4.39,8.33,6.69,12.29,1,1.8,2.08,3.59,3.09,5.41a.83.83,0,0,0,1.08.38,1,1,0,0,0,.53-1.12,88.82,88.82,0,0,0-2.57-9.3c-.62-2-1.26-4-1.78-6-3.94-15-7.35-28.63-10.43-41.67-2.52-10.66-5.43-21.93-10.84-32.3-1.41-2.7-3-5.32-4.6-8.09l-.87-1.46.82.4c2.51,1.21,4.88,2.35,7.32,3.29,2.14.82,3.06,2.12,3.54,5C114.62,200.84,121.2,224,131,249.22c3.92,10.13,8.55,20.09,13,29.73q1.92,4.13,3.83,8.27a73,73,0,0,0,4.08,7.35c.65,1.08,1.31,2.15,1.93,3.25a.84.84,0,0,0,1,.42,1,1,0,0,0,.67-.87,15,15,0,0,0-1.09-6.32c-.52-1.52-1.08-3-1.63-4.55-1.11-3-2.26-6.17-3.12-9.32-4.66-17-9.51-35.22-15.29-57.21-3.75-14.26-7.41-26-13.12-37.16l-1.75-3.44.37.17c1.83.87,3.42,1.62,5,2.33s2.48,1.86,3.11,4l1.83,6.32c2.94,10.2,6,20.74,9.39,30.95,4.5,13.45,9.54,26.5,13.42,36.36,3.13,7.93,6.69,15.64,10.69,24.18,3,6.47,6.35,12.9,9.56,19.12l.69,1.33a30.17,30.17,0,0,0,2.34,3.65c.37.52.73,1,1.09,1.56a.82.82,0,0,0,1.12.27,1,1,0,0,0,.41-1.19c-1.55-4.73-3.28-9.36-5-13.83-1-2.63-2-5.34-3-8l-.15-.42c-2.55-7.12-5.18-14.48-7.25-21.88-2.73-9.74-5.27-19.74-7.72-29.4q-1.18-4.64-2.37-9.27c-2.08-8.1-4.83-17.59-9.47-26.51-1.51-2.91-3.15-5.74-4.88-8.74l-.85-1.48a36.52,36.52,0,0,0,4.67,2.25c3.51,1.3,5.31,3.82,6.22,8.7,3.26,17.55,9.21,33.31,16.65,52.09,1.42,3.59,3.2,7,4.93,10.37,1.13,2.19,2.31,4.46,3.36,6.74,6.18,13.37,13.94,27,24.43,43,1.27,1.93,2.64,3.8,4,5.61.62.84,1.23,1.68,1.84,2.52a.82.82,0,0,0,1.09.25,1,1,0,0,0,.45-1.13,46,46,0,0,0-3.42-9c-.73-1.48-1.52-2.93-2.28-4.34-1.12-2.07-2.28-4.21-3.23-6.4l-1.75-4c-4.07-9.39-8.28-19.11-12-28.84-4.28-11.19-8.05-22.6-11.56-33.33-.62-1.92-1.23-3.84-1.85-5.76-2.82-8.88-5.73-18-10.28-26.88,5.13,2.32,8.32,4.76,9.31,11,2.65,16.83,8.58,33,13.94,46.85,3.46,9,7.59,17.78,11.22,25.56,3.13,6.69,6.54,13.34,9.84,19.78l1.46,2.85a21.7,21.7,0,0,0,2.12,3.18c.33.44.67.88,1,1.33a.83.83,0,0,0,.85.36.92.92,0,0,0,.69-.66,3.34,3.34,0,0,0-.11-2.46c-7.64-16.95-12.94-35.22-17.54-52.45-4.32-16.17-8.46-30.66-15.41-44.17a5.76,5.76,0,0,1-.39-1.19l.78.46c1.63,1,3,1.81,4.48,2.57,2.35,1.23,3.65,3.19,4.35,6.57,5.13,24.76,13.82,47.75,21.65,67a305.27,305.27,0,0,0,18.15,36.7c4.16,7.26,8.56,14.51,12.81,21.53l3.77,6.22a24.88,24.88,0,0,0,1.94,2.67c.3.38.6.75.89,1.13a.82.82,0,0,0,1.21.14l.81-.7a1,1,0,0,0,.22-1.27c-.68-1.25-1.38-2.48-2.08-3.71-1.49-2.62-3-5.32-4.3-8.09-1.46-3.21-3-6.45-4.46-9.59-4.84-10.28-9.84-20.91-13.39-32-4.46-14-8.82-28.14-13-41.79q-.64-2.08-1.27-4.17c-3.11-10.28-6.33-20.91-12.38-30a3.86,3.86,0,0,1-.4-1l1,.69c2,1.32,3.71,2.46,5.49,3.48,2.33,1.33,3.59,3.31,4.22,6.62,4,21.08,10.86,43.06,21.1,67.19,2.83,6.67,6.15,13.2,9.36,19.51q1.39,2.74,2.78,5.48a49.76,49.76,0,0,0,3,5c.48.72,1,1.44,1.41,2.18a.83.83,0,0,0,1.12.31,1,1,0,0,0,.44-1.18c-1.74-5.71-3.52-10.9-5.46-15.89-5.22-13.41-9-27.17-12.73-41.26q-.59-2.21-1.16-4.42c-3.09-11.82-6.28-24-12-35.07l1,.72c2,1.44,3.81,2.68,5.66,3.9s2.92,2.9,3.68,5.68c2.6,9.57,5.43,19.82,8.51,29.88,4.73,15.49,11.15,30.44,17.36,44.91l.74,1.73c2.72,6.33,5.87,12.55,8.91,18.56q1.41,2.78,2.81,5.56c1.45,2.89,3.11,5.87,5.22,9.37,1.38,2.28,2.87,4.53,4.31,6.71q1,1.44,1.9,2.88a.83.83,0,0,0,1,.35,1,1,0,0,0,.61-.94,13.24,13.24,0,0,0-1.35-5.26l-.18-.44L271.54,352c-2.92-7-5.93-14.22-8.81-21.37-5.4-13.43-9-27.6-12.53-41.3-3.43-13.43-7.13-26.43-14.52-37.9l1.25,1c2.55,2,5,3.8,7.36,5.56,1.64,1.21,2.5,2.86,2.88,5.51,2.87,20.47,9.46,39.36,15.54,55.14,3.34,8.67,7.31,17.19,11.15,25.43l2.53,5.44c1.28,2.77,2.82,5.42,4.31,8,.68,1.17,1.37,2.35,2,3.53a.83.83,0,0,0,1.09.38,1,1,0,0,0,.51-1.13,94.28,94.28,0,0,0-2.95-9.84c-.29-.85-.57-1.69-.86-2.54q-1.3-3.91-2.61-7.82c-2.52-7.5-5.12-15.26-7.4-23-1.52-5.17-2.86-10.53-4.14-15.71-2.86-11.51-5.81-23.37-11.14-34.53a13,13,0,0,1,5.25,8.2,161.28,161.28,0,0,0,7.22,25.24c9.34,24,19.94,44.13,32.42,61.4,2.55,3.54,5.28,7,7.91,10.36q1.84,2.35,3.67,4.7a.84.84,0,0,0,.64.34.8.8,0,0,0,.3,0,1,1,0,0,0,.6-.86,6.59,6.59,0,0,0-1.08-4c-1.26-2.24-2.59-4.49-3.87-6.67a159.41,159.41,0,0,1-8.05-14.82c-7.67-16.87-13.15-29.91-17.77-42.29a177.42,177.42,0,0,0-12-25.6c20.45,23.71,43.46,44.67,65.77,65,8.2,7.47,16.68,15.2,24.9,22.94a.82.82,0,0,0,1.11,0,1,1,0,0,0,.26-1.19,21,21,0,0,0-3.15-5q-3.54-4.37-7.07-8.75c-6-7.46-12.24-15.18-18.5-22.64-19.85-23.68-40.39-42.63-62.78-57.93a55.26,55.26,0,0,1-6.58-5.62l-.5-.47a191.86,191.86,0,0,0,28.73,13.33l5.45,2c7.6,2.76,15.45,5.62,23.12,8.61A178.46,178.46,0,0,1,358,312.13c.84.58,1.72,1.07,2.57,1.54l1.16.66a.81.81,0,0,0,.87,0,1,1,0,0,0,.42-.85,2.9,2.9,0,0,0-.9-2.32l-.5-.41c-1.38-1.14-2.81-2.32-4.28-3.39a279.9,279.9,0,0,0-44.84-26.58C292.13,271,276,265.43,260,262.67c-4.46-.77-7.28-3.93-10.27-7.27l-.11-.12.19.06c13.35,4.74,27.37,8.15,39.73,11.16,13.8,3.36,27.79,6.94,41.33,10.41l11.73,3c2.34.6,4.72,1.3,7,2l3.24.95a.83.83,0,0,0,.83-.24,1,1,0,0,0,.26-.91,2.87,2.87,0,0,0-1.58-2.28q-4.37-1.94-8.73-3.92c-7.1-3.21-14.45-6.53-21.78-9.52a315.5,315.5,0,0,0-40.12-13.43c-11.83-3.05-25.63-6.3-39.8-6.11a8.15,8.15,0,0,1-5.7-2c-2.49-2.09-5.07-4.12-7.57-6.08-1.49-1.17-3-2.34-4.47-3.53-.42-.34-.84-.7-1.25-1.08a28,28,0,0,1,3.16.72c12.59,3.39,25.64,4.66,38.26,5.88l4.23.41c30,3,53.89,8.21,75.08,16.5a16.94,16.94,0,0,0,2.3.66l1,.25a.84.84,0,0,0,.91-.36,1.06,1.06,0,0,0,.07-1.06,6.06,6.06,0,0,0-2.74-2.82c-1.76-.9-3.5-1.83-5.25-2.76-4.27-2.27-8.69-4.62-13.2-6.52-17-7.15-36.13-12.61-58.45-16.69a482.41,482.41,0,0,0-56.93-6.83c-3.95-.24-7-.59-9.74-2.82-2-1.59-4.11-3-6.16-4.44l-.55-.37c2.08.41,4.19.85,6.23,1.28,5.11,1.08,10.38,2.19,15.65,2.76,14.9,1.61,29.95,2.69,42.7,3.54,27.33,1.82,51.26,5.15,73.07,10.14l.13.17q2.67,3.6,5.33,7.23a39.39,39.39,0,0,0,2.6,3.1c.39.44.78.87,1.17,1.32s.95.52,1.24.12l.63-.87a1.41,1.41,0,0,0-.1-1.53c-1-1.46-2-2.91-3-4.35s-2.15-3.07-3.22-4.63a.91.91,0,0,0,.74-.69,1,1,0,0,0-.29-1,11.35,11.35,0,0,0-2.72-1.78c-.28-.44-.58-.87-.85-1.31-2.29-3.74-4.66-7.5-7-11.12l-.39-.6,1,.12.76.08a.9.9,0,0,0,.94-.7,1,1,0,0,0-.46-1.14,42.66,42.66,0,0,0-4.6-2.1C317.8,201,310.95,190.32,305,179.2c-8.57-15.93-17.31-31.73-26-46.8l-2.64-4.6A219.08,219.08,0,0,0,262,105.33q3.33,1.36,6.79,2.7c11.05,22.41,24.59,45.79,41.17,72,4.77,7.55,9.94,15,14.89,22.18q2.15,3.13,4.27,6.3c1.36,2,2.88,3.91,4.34,5.73.67.83,1.33,1.66,2,2.5.35.46.86.59,1.19.31a1.23,1.23,0,0,0,.12-1.43c-3.26-6.69-6.47-12.73-9.8-18.49-9-15.47-16.83-31.22-25-47.17l-2.56-5c-5.7-11.1-11.72-22.41-19-32.68q4.07,1.4,8.22,2.68c.34.52.67,1,1,1.65,5.85,10.66,12,22.17,18.28,33.56,9.6,17.53,20.42,34.59,30.62,51.4l1.22,2c4.46,7.37,9.26,14.63,13.85,21.71q2.13,3.28,4.23,6.57c2.18,3.43,4.58,7,7.55,11.13,1.94,2.72,4,5.41,5.93,8q1.29,1.73,2.58,3.46a.87.87,0,0,0,1.07.4,1,1,0,0,0,.38-1.16,21.77,21.77,0,0,0-2.61-6.37l-.29-.53q-2.48-4.54-5-9.06c-4.66-8.38-9.55-17-14.34-25.4-9-15.84-16.69-32.43-24.38-48.29-7.53-15.54-15.44-30.4-26.63-42.78l1.56,1c3.18,2,6.18,3.83,9.15,5.61,2,1.22,3.43,3,4.68,6.12,9.59,23.63,21.8,45.42,32.28,64,5.76,10.17,12,20.23,18,30.06q2,3.25,3.91,6.51c2,3.32,4.17,6.49,6.29,9.58,1,1.41,1.94,2.83,2.88,4.26.32.49.82.68,1.18.43a1.2,1.2,0,0,0,.24-1.4c-1.61-4.2-3.52-8.14-5.38-11.95l-1.5-3.07q-2.29-4.72-4.63-9.41c-4.48-9-9.19-18.25-13.64-27.4-3-6.12-5.86-12.46-8.68-18.56-6.26-13.54-12.9-27.38-21.84-40a20,20,0,0,1,7.86,9.14,319.46,319.46,0,0,0,15,29.4c16.44,28,32.26,52,48.89,73.07,3.4,4.31,6.94,8.56,10.35,12.7q2.38,2.89,4.74,5.82a1,1,0,0,0,.71.41.59.59,0,0,0,.29-.07,1,1,0,0,0,.41-1.08,11.32,11.32,0,0,0-2-4.94c-1.78-2.79-3.63-5.57-5.43-8.25-3.95-5.88-8.06-11.91-11.67-18.16-11.93-20.57-21-36.13-29.22-50.79a246,246,0,0,0-19.7-29.8c27.71,26.43,56.52,50.81,84,75.76,10.09,9.17,20.45,18.83,30.47,28.71.38.38.85.39,1.11,0a1.57,1.57,0,0,0,0-1.54A35.46,35.46,0,0,0,457.94,251ZM351.9,65.77q8,5.1,16,10c-3.75-.7-7.58-1.35-11.52-1.93q-5.82-3.88-11.8-8Q348.23,65.79,351.9,65.77Zm-25.81,24c-6.63-.51-13.35-.77-20.09-.91a10.17,10.17,0,0,0-3.37-3c-1.14-.66-2.27-1.37-3.4-2,5.26-.29,10.31-.6,15.07-.89,4.33,2.36,8.62,4.67,12.86,6.9Zm-7.56-46.15q8.31,5.69,17.17,11.6c.87.58,1.75,1.14,2.63,1.72q-3.83-.38-7.61-.68Q322.42,50.35,313.65,44C315.26,43.82,316.9,43.72,318.53,43.59Zm-4.19,23.7q5.61-.34,11.29-.64,4.12,2.32,8.2,4.57c-5.86-.54-11.9-1-18.09-1.32l-3.59-2.47ZM295,27.1Q303.16,33,311.88,39H310l-3.15,0q-7.67-5.61-15.77-11.62C292.4,27.31,293.7,27.19,295,27.1ZM291.8,47q6.81,4.06,13.46,8-5.6-.09-11.11,0l-1.77-1.23-7.6-5.35C287.1,47.89,289.42,47.43,291.8,47ZM289.1,68.82l1.2.69q-6.57.17-13.22.66l-.88-.56ZM273.31,40.27l-10.81-7.6c1.35-.34,2.7-.69,4.07-1,2,1.23,4,2.53,6,3.74l7.3,4.43C277.63,39.95,275.45,40.09,273.31,40.27Zm-7.26-35c1.67,1.33,3.33,2.67,5,4,4,3.13,8.18,6.27,12.43,9.43-1.48,0-3,0-4.44,0q-8.59-6.19-17.15-12.11C263.27,6.08,264.67,5.68,266.05,5.25ZM240.34,14.7c3.45,2.32,6.9,4.58,10.35,6.83-1.12.2-2.25.37-3.37.6-3.1-2.13-6.2-4.25-9.34-6.38ZM260,70.61c.76.38,1.52.74,2.28,1.12-3.69.52-7.39,1.15-11.07,1.87L248,71.37Zm-21-30.52,6.61,3.8c-1.64.3-3.25.63-4.86,1l-4.83-3.57Zm.54,19.71.62.35c-2,.41-3.94.84-5.92,1.32l-.23-.16Q236.7,60.58,239.46,59.8Zm-2,17-.44.12a4.23,4.23,0,0,1-2.24.22A69.54,69.54,0,0,1,223,72.05c1.34,0,2.68.06,4,.1l2.25.06C232,73.75,234.77,75.31,237.49,76.81Zm-60.91,56.56q-3.46-5.16-6.78-10.34c1.79-.43,3.61-.81,5.42-1.19,2.77,3.51,5.59,7,8.41,10.58C181.25,132.68,178.93,133,176.58,133.36Zm2.94,15.2c-1.46.27-2.88.6-4.32.9l-4.41-5c1.38-.36,2.79-.76,4.15-1.1C176.44,145.13,178,146.85,179.51,148.57Zm-58.17-28.21c1.69,1.47,3.38,3,5,4.39-1.78.49-3.55,1-5.35,1.48l-1.58.48c-1.38-1.42-2.76-2.83-4.17-4.28Zm-5.58-18.76,2.23-.79q3.29,3.45,6.74,7c-.94.17-1.91.33-2.83.51C119.9,106.14,117.85,103.89,115.77,101.6ZM121,83.06q1.64-.4,3.32-.79,2.8,3.61,5.64,7.09c-1.09.14-2.17.26-3.27.42Q123.84,86.4,121,83.06Zm16.27,50.86q3.48,2.88,6.92,5.66c-3,.78-6.05,1.64-9.21,2.65-1.74-1.7-3.49-3.41-5.25-5.16Zm64.48,3.57q2.6,3.65,5.24,7.27c-2.6.25-5.13.56-7.68.86-.4-.66-.8-1.34-1.19-2-1-1.59-1.95-3.23-2.9-4.86Q198.5,138.09,201.74,137.48Zm-10.55-5.76q-3.36-5.94-6.6-11.6c1.55-.25,3.09-.5,4.66-.71,2.61,3.86,5.28,7.77,8,11.76C195.23,131.32,193.22,131.54,191.19,131.72Zm.14-31.38c-2.44-4.1-4.83-8-7.21-11.66q2.42.9,4.86,1.73c2.73,4.21,5.47,8.43,8.24,12.6,6.36,9.55,12.79,19,18.49,27.3H215c-2.06,0-4,.19-6.07.27C203.52,121.12,197.74,111.13,191.33,100.34Zm-4.52,15.46c-1.55,0-3.1,0-4.65.07-1.69-3-3.36-5.83-5-8.69.9-.09,1.8-.2,2.7-.27a8.24,8.24,0,0,0,1-.17Q183.74,111.23,186.81,115.81ZM175,103.53l-5.17-8.9c-3.13-5.38-6.45-10.87-10.12-16.23l4.6,2.1c4.51,7.55,9.3,15.24,14.42,23.13C177.54,103.57,176.27,103.57,175,103.53Zm-13.68.07c-1.39.06-2.75.06-4.16.14-2.07-3.07-4.15-6.13-6.22-9.12l-1.44-2.08c1.12-.2,2.23-.41,3.35-.59Q157.14,97.87,161.35,103.59Zm-1.53,22.13c2.49,3,5,6,7.56,8.94-1.44.24-2.85.57-4.29.83-.33-.4-.68-.79-1-1.19-2-2.48-4-5-5.93-7.53C157.37,126.4,158.61,126.09,159.83,125.72Zm-5.86-7-3.62.62L145.49,113c1.08-.28,2.11-.52,3.17-.78Zm-7.69-30.81c-2-2.85-4-5.72-6.11-8.58,1.12-.17,2.23-.35,3.38-.51h.12c2.05,3,4.1,6,6.19,8.93C148.67,87.74,147.47,87.82,146.28,87.88ZM142.74,105c-1,.12-2.12.32-3.15.46-1.38-1.74-2.76-3.47-4.16-5.18-1.06-1.3-2.14-2.59-3.21-3.89,1-.26,1.92-.5,2.88-.74Zm-9.44,11.48c1.72,1.73,3.46,3.45,5.2,5.17-1.1.25-2.22.54-3.33.81-1.57-1.65-3.19-3.38-4.8-5.09C131.36,117.09,132.32,116.82,133.3,116.52Zm10.39,14.76.21-.09c1-.42,2.13-.76,3.18-1.16q3.75,3.59,7.53,7.12c-.69.15-1.39.25-2.07.4l-2.09.49Q147.09,134.74,143.68,131.28ZM155.8,148.7l3.87,3,1.43,1.11q-5.83,1.54-11.47,3.33-2.25-2.05-4.5-4.17Q150.55,150.24,155.8,148.7Zm4.42-1.29c1.42-.41,2.86-.84,4.26-1.23q2.53,2.27,5.07,4.5c-1.56.36-3.14.7-4.68,1.08l-.21-.21C163.18,150.2,161.7,148.79,160.22,147.41ZM165.93,117c-1.6-2.53-3.25-5-4.9-7.54,1.41-.27,2.79-.51,4.17-.74,1.95,2.62,4,5.2,6,7.78C169.43,116.7,167.68,116.85,165.93,117Zm23.8,22.87c1.77,2.1,3.54,4.18,5.34,6.21-3,.39-5.89.84-8.79,1.32-1.37-1.93-2.76-3.87-4.1-5.8C184.73,141,187.25,140.45,189.73,139.91Zm23.51,13.36,5.86,7.94a220.8,220.8,0,0,0-22.31.73c-1.15-1.55-2.31-3.11-3.44-4.65C200.42,155.64,207,154.33,213.24,153.27Zm3.18-9.25q-2.26-4.08-4.62-8.27c2.32-.36,4.63-.71,6.93-1l4,5.92c.67,1,1.35,1.95,2,2.92-1.69.07-3.37.09-5.06.19C218.6,143.83,217.53,143.95,216.42,144ZM230,151c2.64,3.69,5.37,7.47,8.21,11.38-4.07-.43-8.14-.78-12.23-1-.19-.33-.39-.66-.58-1q-2.22-4.1-4.52-8.28C223.9,151.69,226.94,151.33,230,151Zm-1.4-17.45c.68-.07,1.38-.17,2.06-.24a8.94,8.94,0,0,0,1.84-.44l.75-.23a.91.91,0,0,0,.59-.71c2.35,3.31,4.87,6.51,7.34,9.61.46.57.91,1.19,1.37,1.77-2.84,0-5.69-.07-8.56,0Zm11.11,38.34c1.82,0,3.7.08,5.54.13q3.88,5.25,7.74,10.43c-3.93-.5-7.88-1-11.8-1.38-1.45-.15-2.87-.27-4.3-.4a24,24,0,0,0-2.57-5.47c-.63-1.06-1.28-2.1-1.93-3.15C234.82,172,237.26,171.9,239.72,171.88Zm11.49.26c4.8.26,9.74.76,14.75,1.39q4.71,5.79,9.91,12l-7-1c-3.62-.5-7.31-1-11-1.49-1.17-1.95-2.34-3.89-3.5-5.78Zm6.45-23.09c1.06,0,2.11-.08,3.17-.1,3.52,5,7,9.87,10.22,14.43,1.47,2.08,3,4.16,4.49,6.24l-.15,0c-1.66-.48-3.33-.87-5-1.31Q264,158.71,257.66,149.06Zm2.05,16.7c-4.62-1-9.26-1.83-13.92-2.49q-3.94-6.47-7.77-13c3.09-.27,6.17-.53,9.3-.72C251.21,154.82,255.32,160.2,259.72,165.76Zm-5.59-22.08c-7.55-11.67-14.85-23.44-21.8-34.4l-3.84-6.08c-3.87-6.13-7.91-12.34-12.39-18.38,2.26,1.06,4.52,2.11,6.77,3.16,8.61,17.22,19.5,33.56,29,47.85,1.78,2.68,3.59,5.35,5.42,8C256.22,143.75,255.17,143.73,254.13,143.67ZM218.85,50.46,217,49.14l2.15-.91,2.4,1.43ZM220.17.83C223.11,2.9,226,4.9,229,6.93c-.93.33-1.83.67-2.76,1-2.88-1.88-5.85-3.77-9-5.66C218.24,1.79,219.21,1.3,220.17.83Zm.73,28.74-.58.23c-1.35-1-2.69-2-4-3C217.84,27.78,219.36,28.65,220.91,29.57ZM216.6,64.93l2,1.2c-1,.37-2.06.68-3.08,1.07-.18.07-.36.07-.54.12l-3-1.85Q214.35,65.25,216.6,64.93ZM199.24,36.32l3,1.78-.4.22-2.7-1.92Zm1.5,19.19,2.31,1.4c-.81.47-1.6,1-2.38,1.49l-1.65-1-1.44-.87C198.62,56.18,199.68,55.86,200.73,55.51ZM198.1,76.21l.09.16c9.72,18.32,21.14,34.51,34.74,54.28l0,.06c-2.06-.21-4.11-.32-6.15-.39-3.18-5.74-6.36-11.46-9.5-17q-2.76-4.89-5.56-9.75c-4.9-8.49-11-18.32-18.9-27.08-1.57-1.74-3.19-3.45-4.84-5.16Q193.08,73.78,198.1,76.21ZM183.43,45l3.78,2.31c-.76.53-1.52,1.07-2.27,1.61-1.42-.85-2.83-1.72-4.26-2.56Q182.07,45.68,183.43,45ZM172.56,65.22q2.1,3.17,4.18,6.35c2.45,3.75,4.93,7.59,7.41,11.43q-3.19-1.81-6.37-3.68a161.17,161.17,0,0,0-13-16.1l-3-3.27.42.11c2.13.56,4,1.05,5.81,1.49S171.12,63,172.56,65.22Zm-1.9-27.89c-.77.58-1.57,1.15-2.33,1.74l-1.58-.93c-1.76-1-3.58-2.05-5.36-3.08.89-.53,1.75-1.09,2.64-1.63ZM157.93,11l3.53,2.35c-1.35-.7-2.69-1.28-4-1.93Zm-13.51,11.1L151.24,26c-.75.65-1.48,1.35-2.22,2-2.37-1.32-4.75-2.6-7.13-3.88Zm-5.2,32.15c2.92.74,5.67,1.46,8.41,1.95,2.4.43,3.81,1.6,5.38,4.48.92,1.69,1.88,3.39,2.83,5.09-5.38-3.45-10.88-7-16.55-10.78l-1-1ZM141,74.85l-4.13.14c-.94-1.25-1.86-2.52-2.82-3.74-2.43-3.07-5-6-7.48-8.81C129.71,64,132.83,65.5,136,67,137.62,69.67,139.32,72.26,141,74.85ZM122.5,10.38q3,1.43,6,3c-1.17.84-2.34,1.68-3.46,2.52-2.21-.94-4.4-1.84-6.57-2.64ZM116.66,40c1.75-.68,3.42-1.49,5.07-2.31,4.37,2.22,8.53,4.35,12.46,6.37a4.67,4.67,0,0,1-2.2,0c-3.74-.82-7.54-1.56-11.21-2.27l-2.3-.44-2-1.3ZM103.28,5.23a10.29,10.29,0,0,1,1.64-.52c-1.36,1.09-2.69,2.19-4,3.3L99.56,7.7c-.53-.11-1.07-.24-1.69-.41C99.89,6.58,101.64,6,103.28,5.23ZM99.36,26.38l8.44,4.24q-1.19,1.19-2.33,2.39-4.26-2.62-8.63-4.91Zm1.45,22.82a30.26,30.26,0,0,1,1.71,2.54c.36.59.73,1.18,1.11,1.75,5.4,8.08,10.71,15.56,16.05,22.7-1.43.15-2.84.31-4.23.48q-3.72-4.27-7.41-8.45l-1.52-1.72-.38-.4.75-.23a1,1,0,0,0,.66-1,.93.93,0,0,0-.75-.9,25.58,25.58,0,0,0-2.95-.26A115.72,115.72,0,0,0,93.26,53.8l.39-.11.78-.27a1,1,0,0,0,.09-1.84,11.5,11.5,0,0,0-4.91-.85h-.27c-2.69-2-5.42-3.93-8.25-5.65a122,122,0,0,1,14.62,1.39ZM76.5,81.38C75,79.83,73.5,78.26,72,76.7L73.68,76c2.6,2.61,5.19,5.19,7.8,7.72l-2.16.6C78.38,83.38,77.43,82.36,76.5,81.38Zm2,20.56c-1.32.48-2.65.93-4,1.43l-1.95-2.09c1.14-.51,2.28-1,3.42-1.54Zm-1.81,15.47,1.36-.56c1.41,1.11,2.84,2.18,4.26,3.27q-2.85,1.23-5.62,2.55l-.89.44c-1.2-1.27-2.37-2.55-3.56-3.82C73.71,118.67,75.19,118,76.68,117.41Zm.77-57.2c-.89-.92-1.85-1.79-2.78-2.67,1.46-.37,3-.66,4.45-1l.7.85c2.26,2.75,4.56,5.57,6.88,8.38-1.08.2-2.16.43-3.25.65ZM89.84,112,94,115.63q-2.84,1-5.58,2-1.82-1.79-3.62-3.59ZM87.89,71.09c.86-.26,1.71-.54,2.58-.8.78.93,1.55,1.87,2.34,2.79,1.82,2.13,3.7,4.28,5.61,6.44l-.19,0-2,.45Q92.07,75.48,87.89,71.09ZM95,96.61,93.7,97c-.65.18-1.29.41-1.94.6L88.69,94.3l2.67-1.1Zm-.26,32.82c1.74,1.25,3.47,2.53,5.22,3.76-3.76,1.42-7.3,2.88-10.71,4.39a1.18,1.18,0,0,0-.32-.72c-1.33-1.35-2.62-2.74-3.94-4.1Zm4.45-1.52,3.72-1.27,2.6-.89c1.52,1.32,3,2.61,4.54,3.9q-3.35,1.11-6.51,2.24C102.12,130.6,100.68,129.25,99.23,127.92Zm6.24-15.77-4-4.25-.48-.51,4-1.63c1.89,1.72,3.76,3.4,5.62,5.08C108.86,111.25,107.15,111.69,105.47,112.15Zm-1.65-23.81,1.54-.57.34-.12q2.31,2.54,4.71,5.12c-.71.16-1.45.35-2.17.51ZM81.46,17.43l6.45,3.22c-.73.76-1.44,1.53-2.16,2.3q-3.8-1.56-7.66-2.86C79.21,19.2,80.35,18.33,81.46,17.43ZM60.06,32c1.32-.81,2.66-1.6,4-2.39L70.64,33l3,1.59a4.8,4.8,0,0,1-1.44,0c-2.44-.31-4.9-.56-7.29-.8-2-.2-4-.4-6-.63a3.7,3.7,0,0,1-.73-.18C58.9,32.68,59.49,32.36,60.06,32Zm3.31,10.9c3.1-.15,5.39,1,7.64,4,.58.77,1.22,1.48,1.84,2.17.34.38.68.76,1,1.15l1.25,1.51c-2,.24-4,.54-6.06.85a98.52,98.52,0,0,0-12.63-8.78,25.43,25.43,0,0,1-2.14-1.45l1.84.18A49.1,49.1,0,0,0,63.37,42.92Zm6.07,143.61-4.17-9.4-.83-1.87c-.7-1.58-1.5-3.09-2.27-4.62,2.25.39,4.5.83,6.76,1.28,1.71,6,3.56,11.73,5.53,17.24-.72-.4-1.42-.82-2.15-1.2C71.36,187.46,70.39,187,69.44,186.53Zm.16,33.53-4-1.67c-.52-1-1-2-1.57-3l3.44,1C68.19,217.6,68.9,218.83,69.6,220.06ZM31.86,182c1.05,2,2.13,3.93,3.2,5.87-.94-.25-1.85-.46-2.78-.7l-1.83-3.73-.84-1.72Zm-6.43-38.28A19.29,19.29,0,0,1,24,141.84l1.67.58a43.55,43.55,0,0,0,6.68,2c3,.54,4.68,2.17,5.68,5.42.21.69.48,1.34.75,2l-3.6-.68-.12,0c-1.36-.25-2.68-.42-4-.65A82.72,82.72,0,0,0,25.44,143.69Zm8.48,10.92c2,.11,4.06.24,6.06.4q1.21,3.24,2.4,6.49l.34.92c-1.57-.27-3.13-.55-4.71-.79A80.44,80.44,0,0,0,33.92,154.61Zm5.51,40.93.2.36c.83,1.4,1.66,2.75,2.5,4.12l-.37-.13L38,198.72,36.15,195Zm1.71-27.64c1.24.11,2.48.18,3.73.31,1.22,3.26,2.47,6.51,3.79,9.71-1.06-.35-2.1-.72-3.17-1L43.14,172ZM49,211l.74,1.14c-2-.71-4-1.39-6-2.06l-.36-.71Zm.41-26,2.59.6q1.92,4.32,4,8.74c-.87-.3-1.76-.58-2.63-.87l-.19-.41C52,190.37,50.67,187.68,49.39,185Zm4.07,37.29c1.26.35,2.47.71,3.7,1.06q2.22,3.23,4.45,6.34c-1-.4-1.91-.81-2.9-1.21-2.14-.87-4.34-1.69-6.54-2.52-.87-1.58-1.75-3.13-2.62-4.75Zm6-16.15c-1.18-2.41-2.38-4.91-3.58-7.45l2.54.57c1.33,2.66,2.76,5.38,4.2,8.11Zm.21-40.1a91.33,91.33,0,0,0-11.42-15.76,125.89,125.89,0,0,1,15.16,5.07,4.26,4.26,0,0,1,1.77,2.22,19.31,19.31,0,0,1,.87,3.29c.13.62.25,1.23.4,1.83.48,1.93,1,3.75,1.51,5.62Q63.85,167.09,59.65,166Zm-11-28.16c-1.72,1-3.05,1.42-4.8.76-2.18-.83-4.4-1.62-6.55-2.38-1.81-.64-3.63-1.29-5.43-2a3.05,3.05,0,0,1-.61-.33c.81-.19,1.49-.35,2.16-.55,1.67-.49,3.35-1,5-1.41,4-1.09,8.06-2.21,12-3.71,1.05-.4,2.1-.85,3.16-1.26,1.45,1.06,2.91,2.16,4.36,3.21l1.82,1.31c-2.77,1.55-5.53,3.12-8.24,4.67Zm2.19-43.16-1,.44c-1.64-1.78-3.28-3.52-4.92-5.29l.9-.47c1.85,1.7,3.71,3.41,5.57,5.09Zm1.53,15.9,1.82,1.58-.24.11c-.72.35-1.43.74-2.14,1.11l-1.79-1.72Zm4.42-26.81-.1-.11.77-.39c.81.73,1.63,1.51,2.44,2.23l4.26,3.77L62.34,90Zm1.28-21.13c.64-.24,1.31-.44,2-.67,2.62,2.77,5.24,5.53,7.86,8.23l-1.74.5c-1.41-1.43-2.81-2.87-4.22-4.29C60.73,65.22,59.43,64,58.11,62.69Zm5.72,42.61c.65.55,1.33,1.08,2,1.63-1.21.52-2.42,1-3.63,1.58l-1.57-1.7Zm2,16.72c1.35,1.12,2.7,2.27,4,3.37l.54.43c-1.17.61-2.34,1.24-3.5,1.87-1.28-1.17-2.58-2.34-3.82-3.53l-.71-.69ZM51.5,25.93a5.59,5.59,0,0,1,2.91-.67l-.62.71c-.44.5-.88,1-1.31,1.51A30.75,30.75,0,0,1,49.16,31a5.82,5.82,0,0,1-3.44,1.41c-.55,0-1.11,0-1.66,0a1,1,0,0,0,0-.46.86.86,0,0,0-1-.62c-1.2.26-2.32.63-3.46,1l-.6,0Zm-18,15.91c4.86-.94,8.93.93,14,6.53,2.22,2.46,4.45,4.86,6.68,7.28-1,.24-2,.45-3,.71A111.63,111.63,0,0,0,32.74,43.1,13.16,13.16,0,0,1,31.16,42,12.8,12.8,0,0,0,33.5,41.84Zm6.56,57.74c-.6.29-1.2.59-1.8.89C37,99.25,35.67,98,34.39,96.79l-.94-.87,1.71-.9C36.79,96.54,38.44,98.1,40.06,99.57ZM20.5,46.86c.21.23.42.48.62.67s.33.31.48.47q3.25,3.42,6.41,6.69c-2.57-2.19-5.61-4.59-8.93-6.89C19.56,47.48,20,47.18,20.5,46.86Zm-.45,35,.6-.34q2.62,2.41,5.36,5l-1.8.88c-.67-.61-1.33-1.24-2-1.84l-3.27-3C19.3,82.35,19.67,82.1,20,81.87ZM8.48,55.65,9.26,55c1.62,1.63,3.25,3.27,4.86,4.91C12.24,58.42,10.36,57,8.48,55.65ZM4.25,98.23.58,94.64c1.33-.86,2.65-1.73,4-2.57.63-.4,1.24-.83,1.87-1.25l4.44,3.54Q7.45,96.28,4.25,98.23Zm9,8.54,1.88-1c2-1.1,4-2.18,6.07-3.27,1.78,1.39,3.58,2.82,5.36,4.19-2.8,1.52-5.57,3.07-8.31,4.62Q15.75,109.06,13.26,106.77ZM11,139.17A18.82,18.82,0,0,1,15.23,146c.33.82.69,1.6,1,2.42-1.56-.17-3.13-.38-4.68-.52a88.32,88.32,0,0,0-6.67-8.65C6.94,139.2,9,139.13,11,139.17Zm.2,43.61-.4-.92-.63-1.45.83,0c.49.84,1,1.72,1.47,2.55ZM15.69,193l-.31-.69,3.1.36.64,1C18,193.41,16.84,193.19,15.69,193Zm2.81-33.53c-.93-1.72-1.92-3.47-2.95-5.21h3.13c.77,1.81,1.51,3.65,2.3,5.43C20.16,159.57,19.32,159.49,18.5,159.43Zm1.36-29c-1.47-.34-3-.75-4.42-1.18a.67.67,0,0,0,.44-.34.75.75,0,0,0,0-.73A2.36,2.36,0,0,0,14.35,127c-1.32-.36-2.7-.64-4.05-1l.64-.19,3.75-1c2.51-.69,5.1-1.41,7.63-2.19,1.48-.45,2.93-1,4.39-1.51l.43.19.8.31A.77.77,0,0,0,29,121.3a1,1,0,0,0-.15-.88q5.28-1.88,10.47-4l3.1,2.36q-2.55,1.53-5.06,3.07c-2.41,1.48-4.9,3-7.37,4.46-.61.36-1.22.74-1.83,1.11a39.28,39.28,0,0,1-4.5,2.51A6.41,6.41,0,0,1,19.86,130.43Zm5,41.59q-1.23-2.49-2.45-5h2c.84,1.78,1.65,3.59,2.5,5.34Zm-5.72,43.22c-2.77-.75-4.87-1.44-6.52-3.44-1.18-1.43-2.48-2.77-3.73-4.07l-.34-.35c1.43.59,2.86,1.22,4.25,1.83,3.48,1.52,7.07,3.09,10.74,4.27,3.48,1.12,7,2.18,10.42,3.22.82,1.24,1.64,2.49,2.46,3.72C30.78,218.58,25,216.83,19.16,215.24Zm18,22.54a5.93,5.93,0,0,1-3.77-2.28c-1.46-1.85-3-3.68-4.5-5.44-.89-1.05-1.78-2.11-2.66-3.17-.25-.3-.49-.63-.73-1a20.41,20.41,0,0,1,2.15,1A138.2,138.2,0,0,0,48,234.82l7.84,9A89,89,0,0,0,37.2,237.78ZM77.8,269.19c-11-8-20.49-13.38-30.12-17.18-3.06-1.21-4.61-3.87-6.25-6.69l-.06-.11.12.07a293.73,293.73,0,0,0,26.67,13.79l1.5.72Zm8.3-9.08a225,225,0,0,0-20.57-11.67c-2.08-3.25-4.16-6.58-6.23-10.06,4.12,1.32,8.08,2.66,11.85,4,2.4,3.06,4.82,6.07,7.25,9S83.52,257.25,86.1,260.1ZM70.45,227.37c1.42.46,2.86.92,4.25,1.38q3.07,5.08,6.29,10c-1.87-1-3.77-2-5.72-2.93Q72.86,231.74,70.45,227.37Zm32.85,25.68c-1.76-1.42-3.54-2.82-5.4-4.09-.62-.42-1.26-.83-1.89-1.25-.2-.42-.44-.82-.63-1.24-1.87-4-3.65-8.07-5.39-12.16,1.61.63,3.21,1.26,4.77,1.91Q98.83,244.66,103.3,253.05ZM92.08,230.52q-2.27-1.17-4.65-2.34c-.51-1.23-1-2.48-1.55-3.7l-1.15-2.78c1.3.43,2.59.85,3.89,1.29Q90.31,226.76,92.08,230.52Zm-12.84-29c2.22,5.23,4.5,10.54,6.87,15.9-1.32-.61-2.66-1.28-4-1.88-.58-1.36-1.15-2.73-1.73-4.08-2.84-6.55-5.73-13.12-8.63-19.66,1.4.54,2.85,1.17,4.28,1.77C77.08,196.27,78.13,198.93,79.23,201.53Zm-6.92-55.24-.36.22a3.42,3.42,0,0,1-1,.5l-.77.17a4.8,4.8,0,0,1-2.31.18c-4-1.37-8-2.89-11.93-4.37l-2.39-.9c.22-.07.44-.13.68-.19,1.48-.36,3-.69,4.45-1a97.38,97.38,0,0,0,9.69-2.5l.78-.26c2.59,1.77,5.3,3.58,8.11,5.38Q74.74,144.86,72.31,146.29Zm3.76-10.51L81.24,134c2.16,1.48,4.36,2.9,6.65,4.17q-2.84,1.29-5.54,2.64C80.22,139.18,78.12,137.5,76.07,135.78Zm20.75,23.87c-3.25-1.46-6.58-2.88-9.8-4.25l-4.91-2.11a14.09,14.09,0,0,1,1.69-.37c2.39-.33,4.75-.79,7.08-1.34l1.41.78a19,19,0,0,0,2.38,1l1,.39a.75.75,0,0,0,1-.29,1.07,1.07,0,0,0-.16-1.15,16.59,16.59,0,0,0-1.67-1.82A160.34,160.34,0,0,0,111,144.86c3.87-1.56,7.74-3.17,11.58-4.78,1.88,1.53,3.75,3.05,5.61,4.53a104.07,104.07,0,0,0-26.22,14.26A4.61,4.61,0,0,1,96.83,159.66Zm23.1,8.23a5.14,5.14,0,0,1-3.64.41c-2.87-1.1-5.61-2.39-8.8-3.89l-1.86-.87.63-.21c3.46-1,6.92-2,10.39-2.91,7.22-2,14.68-4.06,21.94-6.42l1.21-.38c1.79,1.35,3.57,2.66,5.35,4A218.69,218.69,0,0,0,119.92,167.89Zm20.56,7.7c-5.35,2.2-9.56,1.55-13.76-2.2,13.4-1.63,26.47-5.32,39.13-8.9,3.43-1,6.85-1.93,10.29-2.86l4.77-1.26,2.51,2.11a.87.87,0,0,0,1,.18.84.84,0,0,0,.38-.88,5.11,5.11,0,0,0-.81-2.18l4.41-1.11,3.6,3.92A189.56,189.56,0,0,0,140.48,175.59Zm16.08,9.17c-4,1.47-7.37,1.1-11.3-1.38l1-.1c1.86-.21,3.73-.39,5.59-.58,4.21-.42,8.56-.85,12.81-1.54,5.26-.86,10.6-1.85,15.76-2.81,8.26-1.53,16.8-3.11,25.23-4.21,6.92-.9,14.14-1.51,21.54-1.87,1.82,2.47,3.81,4.81,5.75,7.08l.87,1a304.18,304.18,0,0,0-49-.43C175.39,180.68,165.69,181.44,156.56,184.76Zm4.23,7.24c12.38,1.49,24.74.55,37.38-.63a543,543,0,0,1,59.48-2.76c.93,1.17,1.91,2.27,2.89,3.32.51.55,1,1.1,1.52,1.67a.83.83,0,0,0,1.19.21,1.16,1.16,0,0,0,.07-1.38c-.7-1.26-1.43-2.48-2.14-3.72,6,.16,12.13.47,18.23,1l4.41,5.18c1.8,2.11,3.7,4.16,5.52,6.14l1.68,1.84a495.62,495.62,0,0,0-53.43-8.7c-19-2-44-3.76-69,.35C165.64,195,163.34,193.87,160.79,192Zm167.92,33.95A392.57,392.57,0,0,0,283,214c-28.17-5.77-61.72-11.23-97-8a4.71,4.71,0,0,1-2.23-.13,53.67,53.67,0,0,1-9.69-6.08c1.28.21,2.56.44,3.84.68,2.85.52,5.79,1.06,8.72,1.32,21.38,1.87,46.22,4,70.52,5.87l6.65.5c18.39,1.39,37.34,2.83,55.94,5.85Q324.29,220,328.71,225.95Zm-53.84-77.17c3.69,5.83,7.3,11.46,10.75,16.85,8.27,12.92,17.67,26.29,28.67,41.06l1.58,2.11q-11.51-3-22.61-5.46a1.47,1.47,0,0,0-.13-.69,68,68,0,0,0-5.94-10.13c-1.14-1.64-2.34-3.25-3.51-4.8-1.71-2.28-3.49-4.63-5.07-7l-2.92-4.44-1-1.5c1.7.28,3.48.65,5.22,1,2.28,3.14,4.57,6.27,6.8,9.36l2.28,3.16a33.58,33.58,0,0,0,3,3.49c.46.48.91,1,1.35,1.46a.92.92,0,0,0,.94.35.81.81,0,0,0,.49-.82,4.84,4.84,0,0,0-.81-2.83c-2.81-4.29-5.53-8.65-8.19-13,.71.15,1.37.24,2.08.4a13.83,13.83,0,0,0,2.14.22c.47,0,1,.06,1.67.11a.91.91,0,0,0,.9-.66,1,1,0,0,0-.34-1.13c-.46-.33-.78-.6-1-.8a3.66,3.66,0,0,0-1.13-.72l-3.66-1.2-3.58-1.17c-4.55-7.66-8.91-15.36-13.12-23,1.33,0,2.65,0,4,0A9.68,9.68,0,0,0,274.88,148.78Zm-2.29-3.64-1-.12c-1.4-.16-2.84-.24-4.25-.38-2.36-4.31-4.69-8.6-7-12.79-7.39-13.58-14.54-25.9-22.79-37.12l2.49,1.13,4.63,2.07C253.68,114.57,263.33,130.45,272.59,145.14Zm-15.68-57c-2.54-1.49-5.15-2.78-7.68-4l-.68-.33,2.15.15c1.32.7,2.65,1.43,4,2.12,2.48,1.29,5,2.59,7.62,3.86A13,13,0,0,1,256.9,88.12Zm1-30.89c-.88-.62-1.75-1.25-2.63-1.87,2.3-.63,4.63-1.25,7-1.87l4.82,2.76C264.08,56.51,261,56.84,257.86,57.23Zm16,32.25c-2.18-1.5-4.36-3-6.53-4.49,1.4,0,2.8,0,4.19,0,5.84-.15,11.68-.37,17.38-.64,3.24,1.46,6.47,2.95,9.73,4.35C290.45,88.68,282.18,89,273.89,89.48Z"/><path class="cls-1" d="M517.54,104.63c-3.15-3.36-6.43-6.81-9.6-10.23l-.5-.54C499,84.79,490.19,75.52,482,66.06c-10.75-12.46-21.57-25.17-32.15-37.3q-5.08-5.82-10.2-11.59C434.81,11.69,429.28,5.8,423.2,0H399.58c6.75,6.86,13.56,13.75,20.4,20.53,16.17,16,32.49,31.59,44.83,43.56,9.93,9.62,20.2,18.86,31.56,29.26,8.61,7.88,17.52,15.68,26.09,23.33l1.83,1.64a63.33,63.33,0,0,0,5.62,4.33c.84.6,1.68,1.2,2.51,1.82a1.14,1.14,0,0,0,1.66,0,1.6,1.6,0,0,0-.29-1.88C528.45,116.31,522.91,110.35,517.54,104.63Z"/></g></g></svg>